<?xml version="1.0" encoding="UTF-8" standalone="no"?>
<svg
   xmlns:dc="http://purl.org/dc/elements/1.1/"
   xmlns:cc="http://creativecommons.org/ns#"
   xmlns:rdf="http://www.w3.org/1999/02/22-rdf-syntax-ns#"
   xmlns:svg="http://www.w3.org/2000/svg"
   xmlns="http://www.w3.org/2000/svg"
   xmlns:sodipodi="http://sodipodi.sourceforge.net/DTD/sodipodi-0.dtd"
   xmlns:inkscape="http://www.inkscape.org/namespaces/inkscape"
   enable-background="new 0 0 128 128"
   height="128px"
   id="Layer_1"
   version="1.1"
   viewBox="0 0 128 128"
   width="128px"
   xml:space="preserve"
   inkscape:version="0.91 r13725"
   sodipodi:docname="FileTansferActive.svg"><metadata
     id="metadata13"><rdf:RDF><cc:Work
         rdf:about=""><dc:format>image/svg+xml</dc:format><dc:type
           rdf:resource="http://purl.org/dc/dcmitype/StillImage" /></cc:Work></rdf:RDF></metadata><defs
     id="defs11" /><sodipodi:namedview
     pagecolor="#ffffff"
     bordercolor="#666666"
     borderopacity="1"
     objecttolerance="10"
     gridtolerance="10"
     guidetolerance="10"
     inkscape:pageopacity="0"
     inkscape:pageshadow="2"
     inkscape:window-width="981"
     inkscape:window-height="729"
     id="namedview9"
     showgrid="false"
     inkscape:zoom="1.84375"
     inkscape:cx="64"
     inkscape:cy="64"
     inkscape:window-x="778"
     inkscape:window-y="146"
     inkscape:window-maximized="0"
     inkscape:current-layer="Layer_1" /><g
     id="g3"
     style="fill:#008000"
     transform="matrix(1.0442755,0,0,1.0248092,-2.2912453,-1.0454268)"><path
       d="m 111.276,77.913 -3.286,-3.286 c -2.293,-2.292 -6.006,-2.299 -8.292,-0.013 l -4.254,4.253 0,-52.786 c 0,-3.204 -2.606,-5.804 -5.822,-5.804 l -4.608,0 c -3.213,0 -5.818,2.6 -5.818,5.804 l 0,52.785 -4.254,-4.252 c -2.287,-2.287 -6,-2.279 -8.292,0.013 l -3.288,3.285 c -2.292,2.295 -2.299,6.006 -0.011,8.293 l 19.807,19.81 c 1.147,1.147 2.656,1.716 4.163,1.708 1.507,0.007 3.013,-0.561 4.161,-1.709 l 19.809,-19.809 c 2.283,-2.285 2.278,-5.998 -0.015,-8.292 z"
       id="path5"
       style="fill:#008000"
       inkscape:connector-curvature="0" /><path
       d="m 16.724,50.086 3.287,3.287 c 2.293,2.292 6.005,2.299 8.292,0.014 l 4.254,-4.253 0,52.786 c 0,3.205 2.606,5.804 5.821,5.804 l 4.609,0 c 3.214,0 5.82,-2.599 5.82,-5.804 l 0,-52.786 4.253,4.252 c 2.287,2.287 6,2.279 8.292,-0.014 l 3.287,-3.286 c 2.292,-2.293 2.298,-6.004 0.011,-8.292 L 44.843,21.985 c -1.147,-1.146 -2.656,-1.716 -4.162,-1.708 -1.508,-0.006 -3.014,0.562 -4.163,1.709 L 16.71,41.794 c -2.285,2.286 -2.28,5.999 0.014,8.292 z"
       id="path7"
       style="fill:#008000"
       inkscape:connector-curvature="0" /></g></svg>