<?xml version="1.0" encoding="UTF-8" standalone="no"?>
<svg
   xmlns:dc="http://purl.org/dc/elements/1.1/"
   xmlns:cc="http://creativecommons.org/ns#"
   xmlns:rdf="http://www.w3.org/1999/02/22-rdf-syntax-ns#"
   xmlns:svg="http://www.w3.org/2000/svg"
   xmlns="http://www.w3.org/2000/svg"
   xmlns:sodipodi="http://sodipodi.sourceforge.net/DTD/sodipodi-0.dtd"
   xmlns:inkscape="http://www.inkscape.org/namespaces/inkscape"
   height="19px"
   version="1.1"
   viewBox="0 0 14 19"
   width="14px"
   id="svg2"
   inkscape:version="0.91 r13725"
   sodipodi:docname="FileUploadOk.svg">
  <metadata
     id="metadata16">
    <rdf:RDF>
      <cc:Work
         rdf:about="">
        <dc:format>image/svg+xml</dc:format>
        <dc:type
           rdf:resource="http://purl.org/dc/dcmitype/StillImage" />
        <dc:title></dc:title>
      </cc:Work>
    </rdf:RDF>
  </metadata>
  <sodipodi:namedview
     pagecolor="#ffffff"
     bordercolor="#666666"
     borderopacity="1"
     objecttolerance="10"
     gridtolerance="10"
     guidetolerance="10"
     inkscape:pageopacity="0"
     inkscape:pageshadow="2"
     inkscape:window-width="954"
     inkscape:window-height="676"
     id="namedview14"
     showgrid="false"
     inkscape:zoom="12.421053"
     inkscape:cx="7"
     inkscape:cy="9.5"
     inkscape:window-x="2251"
     inkscape:window-y="175"
     inkscape:window-maximized="0"
     inkscape:current-layer="svg2" />
  <desc
     id="desc6" />
  <defs
     id="defs8" />
  <g
     id="Page-1"
     transform="matrix(-1,0,0,-1,14,18)"
     style="fill:none;fill-rule:evenodd;stroke:none;stroke-width:1">
    <g
       id="Core"
       transform="translate(-383,-213)"
       style="fill:#000000">
      <g
         id="file-download"
         transform="translate(383,213.5)">
        <path
           d="m 14,6 -4,0 0,-6 -6,0 0,6 -4,0 7,7 7,-7 0,0 z m -14,9 0,2 14,0 0,-2 -14,0 0,0 z"
           id="Shape"
           inkscape:connector-curvature="0" />
      </g>
    </g>
  </g>
  <path
     style="fill:#008000"
     d="m 4.0694915,14.47683 0,-2.977407 -1.972884,-0.02153 -1.97288399,-0.02153 3.44251279,-3.4417394 3.4425126,-3.4417393 3.4611651,3.4618664 3.461164,3.4618663 -1.992234,0 -1.9922338,0 0,2.978814 0,2.978813 -2.9385594,0 -2.9385593,0 0,-2.977407 z"
     id="path3416"
     inkscape:connector-curvature="0" />
</svg>
