<?xml version="1.0" encoding="UTF-8" standalone="no"?>
<svg
   xmlns:dc="http://purl.org/dc/elements/1.1/"
   xmlns:cc="http://creativecommons.org/ns#"
   xmlns:rdf="http://www.w3.org/1999/02/22-rdf-syntax-ns#"
   xmlns:svg="http://www.w3.org/2000/svg"
   xmlns="http://www.w3.org/2000/svg"
   xmlns:sodipodi="http://sodipodi.sourceforge.net/DTD/sodipodi-0.dtd"
   xmlns:inkscape="http://www.inkscape.org/namespaces/inkscape"
   height="19px"
   version="1.1"
   viewBox="0 0 14 19"
   width="14px"
   id="svg2"
   inkscape:version="0.91 r13725"
   sodipodi:docname="FileDownloadFailed.svg">
  <metadata
     id="metadata16">
    <rdf:RDF>
      <cc:Work
         rdf:about="">
        <dc:format>image/svg+xml</dc:format>
        <dc:type
           rdf:resource="http://purl.org/dc/dcmitype/StillImage" />
        <dc:title></dc:title>
      </cc:Work>
    </rdf:RDF>
  </metadata>
  <sodipodi:namedview
     pagecolor="#ffffff"
     bordercolor="#666666"
     borderopacity="1"
     objecttolerance="10"
     gridtolerance="10"
     guidetolerance="10"
     inkscape:pageopacity="0"
     inkscape:pageshadow="2"
     inkscape:window-width="954"
     inkscape:window-height="676"
     id="namedview14"
     showgrid="false"
     inkscape:zoom="12.421053"
     inkscape:cx="7"
     inkscape:cy="9.5"
     inkscape:window-x="2251"
     inkscape:window-y="175"
     inkscape:window-maximized="0"
     inkscape:current-layer="svg2" />
  <desc
     id="desc6" />
  <defs
     id="defs8" />
  <g
     fill="none"
     fill-rule="evenodd"
     id="Page-1"
     stroke="none"
     stroke-width="1">
    <g
       fill="#000000"
       id="Core"
       transform="translate(-383.000000, -213.000000)">
      <g
         id="file-download"
         transform="translate(383.000000, 213.500000)">
        <path
           d="M14,6 L10,6 L10,0 L4,0 L4,6 L0,6 L7,13 L14,6 L14,6 Z M0,15 L0,17 L14,17 L14,15 L0,15 L0,15 Z"
           id="Shape" />
      </g>
    </g>
  </g>
  <path
     style="fill:#ff0000"
     d="m 3.5461885,9.9669508 -3.46116434,-3.4618661 1.99223374,0 1.9922336,0 0,-2.9788135 0,-2.97881357 2.9385593,0 2.9385594,0 0,2.97740707 0,2.9774072 1.9728838,0.021533 1.972884,0.021534 L 10.449865,9.9870779 7.0073528,13.428818 3.5461885,9.9669508 Z"
     id="path3344"
     inkscape:connector-curvature="0" />
</svg>
