<?xml version="1.0" encoding="UTF-8" standalone="no"?>
<svg
   xmlns:dc="http://purl.org/dc/elements/1.1/"
   xmlns:cc="http://creativecommons.org/ns#"
   xmlns:rdf="http://www.w3.org/1999/02/22-rdf-syntax-ns#"
   xmlns:svg="http://www.w3.org/2000/svg"
   xmlns="http://www.w3.org/2000/svg"
   xmlns:sodipodi="http://sodipodi.sourceforge.net/DTD/sodipodi-0.dtd"
   xmlns:inkscape="http://www.inkscape.org/namespaces/inkscape"
   enable-background="new 0 0 128 128"
   height="128px"
   id="Layer_1"
   version="1.1"
   viewBox="0 0 128 128"
   width="128px"
   xml:space="preserve"
   inkscape:version="0.91 r13725"
   sodipodi:docname="FileTansferInactive.svg"><metadata
     id="metadata13"><rdf:RDF><cc:Work
         rdf:about=""><dc:format>image/svg+xml</dc:format><dc:type
           rdf:resource="http://purl.org/dc/dcmitype/StillImage" /></cc:Work></rdf:RDF></metadata><defs
     id="defs11" /><sodipodi:namedview
     pagecolor="#ffffff"
     bordercolor="#666666"
     borderopacity="1"
     objecttolerance="10"
     gridtolerance="10"
     guidetolerance="10"
     inkscape:pageopacity="0"
     inkscape:pageshadow="2"
     inkscape:window-width="870"
     inkscape:window-height="954"
     id="namedview9"
     showgrid="false"
     inkscape:zoom="1.84375"
     inkscape:cx="64"
     inkscape:cy="64"
     inkscape:window-x="2090"
     inkscape:window-y="135"
     inkscape:window-maximized="0"
     inkscape:current-layer="Layer_1" /><g
     id="g3"><path
       d="M111.276,77.913l-3.286-3.286c-2.293-2.292-6.006-2.299-8.292-0.013l-4.254,4.253V26.081   c0-3.204-2.606-5.804-5.822-5.804h-4.608c-3.213,0-5.818,2.6-5.818,5.804v52.785l-4.254-4.252c-2.287-2.287-6-2.279-8.292,0.013   l-3.288,3.285c-2.292,2.295-2.299,6.006-0.011,8.293l19.807,19.81c1.147,1.147,2.656,1.716,4.163,1.708   c1.507,0.007,3.013-0.561,4.161-1.709l19.809-19.809C113.574,83.92,113.569,80.207,111.276,77.913z"
       fill="#232323"
       id="path5" /><path
       d="M16.724,50.086l3.287,3.287c2.293,2.292,6.005,2.299,8.292,0.014l4.254-4.253v52.786   c0,3.205,2.606,5.804,5.821,5.804h4.609c3.214,0,5.82-2.599,5.82-5.804V49.134l4.253,4.252c2.287,2.287,6,2.279,8.292-0.014   l3.287-3.286c2.292-2.293,2.298-6.004,0.011-8.292L44.843,21.985c-1.147-1.146-2.656-1.716-4.162-1.708   c-1.508-0.006-3.014,0.562-4.163,1.709L16.71,41.794C14.425,44.08,14.43,47.793,16.724,50.086z"
       fill="#232323"
       id="path7" /></g><path
     style="fill:#4d4d4d"
     d="m 36.441013,107.07522 c -0.629985,-0.25454 -1.667274,-1.12622 -2.305085,-1.93707 -1.149763,-1.46169 -1.159657,-1.70733 -1.159657,-28.790955 0,-15.024177 -0.194535,-27.316687 -0.432299,-27.316687 -0.237765,0 -1.397087,0.996388 -2.576271,2.214195 -4.384125,4.527721 -6.862831,4.673316 -11.158287,0.65542 -2.762513,-2.584007 -4.046971,-5.325212 -3.437308,-7.335676 0.509103,-1.67885 21.270688,-22.598552 23.299219,-23.47666 3.201806,-1.385995 4.298844,-0.675082 14.576497,9.445994 5.332404,5.251166 10.39681,10.499449 11.254237,11.66285 2.365092,3.209079 2.133913,5.18093 -1.00024,8.531592 -4.836811,5.170942 -7.186364,5.342507 -11.915319,0.870057 l -2.881415,-2.725121 0,26.953065 c 0,29.568156 0.03139,29.267936 -3.236484,30.957816 -1.716407,0.88759 -7.12012,1.06188 -9.027588,0.29118 z"
     id="path3341"
     inkscape:connector-curvature="0" /><path
     style="fill:#4d4d4d"
     d="M 85.586441,107.23299 C 83.920968,106.64311 62.302683,84.608971 61.98924,83.181879 c -0.171603,-0.781304 -0.06786,-2.062698 0.230537,-2.847544 0.703144,-1.84941 5.761034,-6.722858 7.278318,-7.012905 2.160664,-0.413037 4.417251,0.601771 6.849904,3.080463 1.327396,1.352521 2.606698,2.459124 2.842893,2.459124 0.236196,0 0.429447,-12.271117 0.429447,-27.269149 0,-24.332763 0.09524,-27.405121 0.884444,-28.531869 2.757452,-3.936815 11.844934,-3.62354 13.894374,0.478984 0.86434,1.730216 0.948385,4.268375 0.949153,28.664593 l 8.43e-4,26.76629 2.95084,-2.696906 c 4.532067,-4.142049 7.184007,-4.056129 11.321127,0.366796 2.69976,2.886253 3.41019,4.634197 2.83168,6.967024 -0.47006,1.895533 -20.481697,22.19508 -22.916735,23.24644 -1.822511,0.7869 -2.591408,0.86083 -3.949624,0.37977 z"
     id="path3343"
     inkscape:connector-curvature="0" /></svg>