<?xml version="1.0" encoding="UTF-8" standalone="no"?>
<svg
   xmlns:dc="http://purl.org/dc/elements/1.1/"
   xmlns:cc="http://creativecommons.org/ns#"
   xmlns:rdf="http://www.w3.org/1999/02/22-rdf-syntax-ns#"
   xmlns:svg="http://www.w3.org/2000/svg"
   xmlns="http://www.w3.org/2000/svg"
   viewBox="0 0 816 712"
   height="712"
   width="816"
   xml:space="preserve"
   id="svg2"
   version="1.1"><metadata
     id="metadata8"><rdf:RDF><cc:Work
         rdf:about=""><dc:format>image/svg+xml</dc:format><dc:type
           rdf:resource="http://purl.org/dc/dcmitype/StillImage" /></cc:Work></rdf:RDF></metadata><defs
     id="defs6"><clipPath
       id="clipPath18"
       clipPathUnits="userSpaceOnUse"><path
         id="path16"
         d="M 0,534 H 612 V 0 H 0 Z" /></clipPath><clipPath
       id="clipPath30"
       clipPathUnits="userSpaceOnUse"><path
         id="path28"
         d="M 0,534 H 612 V 0 H 0 Z" /></clipPath><clipPath
       id="clipPath46"
       clipPathUnits="userSpaceOnUse"><path
         id="path44"
         d="M 0,534 H 612 V 0 H 0 Z" /></clipPath><clipPath
       id="clipPath74"
       clipPathUnits="userSpaceOnUse"><path
         id="path72"
         d="M 0,534 H 612 V 0 H 0 Z" /></clipPath><clipPath
       id="clipPath138"
       clipPathUnits="userSpaceOnUse"><path
         id="path136"
         d="M 0,534 H 612 V 0 H 0 Z" /></clipPath><clipPath
       id="clipPath146"
       clipPathUnits="userSpaceOnUse"><path
         id="path144"
         d="M 183,488 H 416 V 311.66 H 183 Z" /></clipPath><clipPath
       id="clipPath150"
       clipPathUnits="userSpaceOnUse"><path
         id="path148"
         d="m 397.3,311.66 c -0.5,0 -0.996,0.012 -1.489,0.036 l -0.626,0.044 c -0.288,0.018 -0.565,0.036 -0.839,0.062 l -0.788,0.094 c -0.229,0.027 -0.44,0.051 -0.649,0.082 l -1.404,0.241 c -0.141,0.028 -0.625,0.138 -0.625,0.138 l -0.184,0.04 c -0.186,0.04 -0.374,0.081 -0.557,0.127 l -0.81,0.223 c -0.173,0.046 -0.346,0.093 -0.515,0.145 -0.14,0.042 -0.276,0.088 -0.414,0.135 l -0.364,0.122 c -0.204,0.068 -0.353,0.117 -0.498,0.17 -0.13,0.048 -0.596,0.234 -0.596,0.234 l -0.171,0.067 c -0.171,0.067 -0.318,0.124 -0.459,0.186 l -0.706,0.323 c -0.155,0.071 -0.311,0.143 -0.463,0.219 -0.133,0.067 -0.541,0.288 -0.541,0.288 0,0 -0.567,0.307 -0.569,0.308 -0.119,0.07 -0.608,0.375 -0.608,0.375 -0.147,0.089 -0.292,0.18 -0.435,0.275 -0.086,0.057 -0.566,0.401 -0.566,0.401 -0.142,0.101 -0.278,0.197 -0.407,0.298 -0.119,0.091 -0.23,0.185 -0.342,0.279 l -0.095,0.079 0.028,0.236 -0.128,-0.155 c -0.122,0.101 -0.245,0.203 -0.361,0.309 -0.105,0.093 -0.206,0.191 -0.307,0.29 l -0.155,0.149 c -0.12,0.116 -0.24,0.232 -0.354,0.351 -0.101,0.106 -0.197,0.214 -0.29,0.323 l 0.078,0.214 -0.151,-0.132 c -0.157,0.179 -0.267,0.305 -0.371,0.432 -0.058,0.074 -0.318,0.424 -0.318,0.424 -0.074,0.1 -0.146,0.2 -0.215,0.3 -0.023,0.033 -0.036,0.073 -0.036,0.114 v 13.524 c 0,0.035 0.008,0.083 0.025,0.113 L 379,364.796 v 23.191 c 0,36.393 -29.607,66 -66,66 h -27 c -36.393,0 -66,-29.607 -66,-66 v -29.019 c 0,-0.071 -0.038,-0.136 -0.099,-0.173 -13.454,-7.937 -25.754,-17.716 -36.556,-29.066 -0.038,-0.041 -0.091,-0.063 -0.145,-0.063 -0.025,0 -0.05,0.005 -0.074,0.015 -0.076,0.03 -0.126,0.104 -0.126,0.185 L 183,424 c 0,35.29 28.71,64 64,64 h 105 c 35.29,0 64,-28.71 64,-64 V 320.163 c 0,-0.037 -0.01,-0.072 -0.028,-0.102 -0.071,-0.119 -0.145,-0.237 -0.221,-0.354 l -0.07,-0.111 c -0.086,-0.134 -0.15,-0.234 -0.219,-0.331 -0.091,-0.128 -0.19,-0.254 -0.287,-0.378 l -0.184,-0.233 c -0.075,-0.096 -0.149,-0.192 -0.229,-0.285 -0.106,-0.124 -0.218,-0.242 -0.33,-0.361 0,0 -0.36,-0.383 -0.449,-0.47 -0.143,-0.143 -0.272,-0.259 -0.403,-0.375 l -0.213,-0.193 c -0.096,-0.087 -0.191,-0.174 -0.293,-0.259 -0.14,-0.117 -0.287,-0.23 -0.433,-0.342 0,0 -0.451,-0.348 -0.541,-0.412 -0.151,-0.109 -0.308,-0.212 -0.465,-0.315 l -0.197,-0.13 c -0.173,-0.117 -0.281,-0.189 -0.394,-0.259 -0.197,-0.118 -0.34,-0.2 -0.482,-0.28 0,0 -0.536,-0.308 -0.648,-0.368 -0.169,-0.089 -0.345,-0.175 -0.52,-0.26 0,0 -0.574,-0.283 -0.679,-0.33 -0.181,-0.083 -0.368,-0.161 -0.556,-0.238 l -0.147,-0.06 c 0,0 -0.438,-0.186 -0.559,-0.233 -0.186,-0.072 -0.377,-0.138 -0.568,-0.204 0,0 -0.616,-0.22 -0.753,-0.264 -0.196,-0.064 -0.398,-0.121 -0.6,-0.179 l -0.174,-0.05 c -0.002,-0.006 -0.595,-0.174 -0.6,-0.175 -0.198,-0.052 -0.399,-0.098 -0.6,-0.144 l -0.208,-0.048 c 0,0 -0.477,-0.116 -0.612,-0.144 -0.225,-0.047 -0.453,-0.087 -0.682,-0.126 0,0 -0.68,-0.124 -0.78,-0.14 -0.238,-0.036 -0.479,-0.065 -0.721,-0.094 l -0.775,-0.099 c -0.297,-0.03 -0.599,-0.05 -0.899,-0.07 l -0.628,-0.047 c -0.514,-0.027 -1.033,-0.04 -1.553,-0.04" /></clipPath><radialGradient
       id="radialGradient156"
       spreadMethod="pad"
       gradientTransform="matrix(103.31077,0,0,-103.31077,299.5,399.82983)"
       gradientUnits="userSpaceOnUse"
       r="1"
       cy="0"
       cx="0"
       fy="0"
       fx="0"><stop
         id="stop152"
         offset="0"
         style="stop-opacity:1;stop-color:#231f20" /><stop
         id="stop154"
         offset="1"
         style="stop-opacity:1;stop-color:#ffffff" /></radialGradient><clipPath
       id="clipPath178"
       clipPathUnits="userSpaceOnUse"><path
         id="path176"
         d="M 139,380 H 471 V 48 H 139 Z" /></clipPath><clipPath
       id="clipPath182"
       clipPathUnits="userSpaceOnUse"><path
         id="path180"
         d="m 305,48 c -91.533,0 -166,74.468 -166,166 0,40.652 14.916,79.8 42,110.232 0.661,0.743 1.326,1.48 2,2.21 10.854,11.767 23.302,21.891 37,30.09 0.665,0.398 1.33,0.796 2,1.184 25.145,14.578 53.846,22.284 83,22.284 25.16,0 49.347,-5.514 71.887,-16.389 0.069,-0.033 0.113,-0.104 0.113,-0.18 v -44.585 l 0.165,-0.273 c 0.482,-0.744 1.097,-1.5 1.822,-2.24 0.026,-0.027 0.05,-0.075 0.058,-0.11 0.032,0 0.321,-0.271 0.321,-0.271 l 0.31,-0.294 c 0.223,-0.203 0.459,-0.402 0.7,-0.599 l 0.227,-0.189 c 0.316,-0.251 0.649,-0.497 0.993,-0.735 l 0.25,-0.163 c 0.268,-0.18 0.539,-0.356 0.817,-0.524 l 0.399,-0.23 c 0.242,-0.14 0.487,-0.278 0.737,-0.409 0.148,-0.079 0.3,-0.155 0.451,-0.231 0.248,-0.124 0.5,-0.244 0.755,-0.361 l 0.469,-0.211 c 0.271,-0.117 0.548,-0.229 0.829,-0.338 l 0.436,-0.172 c 0.358,-0.133 0.725,-0.259 1.182,-0.408 l 0.127,-0.043 c 0.44,-0.139 0.892,-0.267 1.35,-0.387 l 0.402,-0.097 c 0.329,-0.081 0.659,-0.159 0.994,-0.23 l 0.526,-0.102 c 0.302,-0.058 0.606,-0.113 0.912,-0.163 l 0.566,-0.085 c 0.265,-0.037 0.545,-0.072 0.879,-0.11 l 0.122,-0.216 0.02,0.199 0.465,-0.049 c 0.334,-0.032 0.673,-0.055 1.014,-0.076 l 0.488,-0.031 c 0.506,-0.024 1.009,-0.038 1.514,-0.038 0.533,0 1.062,0.015 1.587,0.041 l 0.518,0.033 c 0.359,0.023 0.715,0.048 1.069,0.082 l 0.582,0.064 c 0.327,0.038 0.652,0.08 0.975,0.127 l 0.577,0.09 c 0.33,0.054 0.656,0.116 0.981,0.181 l 0.517,0.104 c 0.385,0.084 0.768,0.178 1.148,0.277 l 0.3,0.074 c 0.468,0.128 0.934,0.268 1.392,0.419 l 0.351,0.124 c 0.337,0.116 0.67,0.236 0.996,0.363 l 0.466,0.191 c 0.281,0.116 0.56,0.236 0.834,0.361 l 0.469,0.221 0.891,0.456 0.327,0.178 c 0.284,0.159 0.56,0.324 0.83,0.493 l 0.321,0.195 c 0.365,0.237 0.724,0.484 1.07,0.741 l 0.142,0.111 c 0.294,0.225 0.577,0.451 0.849,0.685 l 0.311,0.279 c 0.208,0.189 0.412,0.378 0.608,0.573 0.11,0.11 0.215,0.22 0.319,0.331 0.873,0.919 1.592,1.888 2.142,2.88 l 0.069,0.141 0.072,0.192 -0.013,0.155 v 15.191 c 0,0.079 0.048,0.152 0.121,0.183 0.025,0.012 0.052,0.017 0.079,0.017 0.05,0 0.099,-0.019 0.137,-0.054 C 451.805,303.83 471,259.669 471,214 471,122.468 396.532,48 305,48" /></clipPath><radialGradient
       id="radialGradient188"
       spreadMethod="pad"
       gradientTransform="matrix(315.51874,0,0,-315.51874,237.50337,294.99594)"
       gradientUnits="userSpaceOnUse"
       r="1"
       cy="0"
       cx="0"
       fy="0"
       fx="0"><stop
         id="stop184"
         offset="0"
         style="stop-opacity:1;stop-color:#ffffff" /><stop
         id="stop186"
         offset="1"
         style="stop-opacity:1;stop-color:#231f20" /></radialGradient><clipPath
       id="clipPath210"
       clipPathUnits="userSpaceOnUse"><path
         id="path208"
         d="M 0,534 H 612 V 0 H 0 Z" /></clipPath><clipPath
       id="clipPath218"
       clipPathUnits="userSpaceOnUse"><path
         id="path216"
         d="M 196.712,462.994 H 391.738 V 312.401 H 196.712 Z" /></clipPath><clipPath
       id="clipPath234"
       clipPathUnits="userSpaceOnUse"><path
         id="path232"
         d="M 164.433,250.712 H 471 V 48 H 164.433 Z" /></clipPath><clipPath
       id="clipPath250"
       clipPathUnits="userSpaceOnUse"><path
         id="path248"
         d="M 0,534 H 612 V 0 H 0 Z" /></clipPath><clipPath
       id="clipPath258"
       clipPathUnits="userSpaceOnUse"><path
         id="path256"
         d="M 187.477,479.845 H 337.218 V 396.873 H 187.477 Z" /></clipPath><clipPath
       id="clipPath274"
       clipPathUnits="userSpaceOnUse"><path
         id="path272"
         d="M 155.647,371.627 H 291.268 V 164.932 H 155.647 Z" /></clipPath><clipPath
       id="clipPath290"
       clipPathUnits="userSpaceOnUse"><path
         id="path288"
         d="m 360.821,335 h 59.802 v -31.789 h -59.802 z" /></clipPath><clipPath
       id="clipPath306"
       clipPathUnits="userSpaceOnUse"><path
         id="path304"
         d="M 0,534 H 612 V 0 H 0 Z" /></clipPath></defs><g
     transform="matrix(1.3333333,0,0,-1.3333333,0,712)"
     id="g10"><g
       id="g12"><g
         clip-path="url(#clipPath18)"
         id="g14"><g
           transform="translate(230.2002,387.9873)"
           id="g20"><path
             id="path22"
             style="fill:#000000;fill-opacity:1;fill-rule:nonzero;stroke:none"
             d="m 0,0 c 0,30.768 25.032,55.8 55.8,55.8 h 27 c 30.768,0 55.8,-25.032 55.8,-55.8 V -9.742 C 118.294,-1.806 96.861,2.213 74.8,2.213 49.023,2.213 23.301,-3.544 0,-14.483 Z m 196,-46.204 v 82.217 c 0,40.914 -33.286,74.2 -74.2,74.2 h -105 c -40.914,0 -74.2,-33.286 -74.2,-74.2 v -93.635 c -28.387,-32.21 -44,-73.47 -44,-116.365 0,-97.158 79.043,-176.2 176.2,-176.2 97.157,0 176.2,79.042 176.2,176.2 0,48.107 -20.025,94.578 -55,127.783" /></g></g></g><g
       id="g24"><g
         clip-path="url(#clipPath30)"
         id="g26"><g
           transform="translate(397.2998,311.6597)"
           id="g32"><path
             id="path34"
             style="fill:#bad4dd;fill-opacity:1;fill-rule:nonzero;stroke:none"
             d="M 0,0 C -0.5,0 -0.996,0.012 -1.489,0.036 L -2.115,0.08 C -2.402,0.098 -2.68,0.116 -2.954,0.143 l -0.788,0.094 c -0.229,0.026 -0.44,0.05 -0.649,0.081 L -5.795,0.559 C -5.936,0.587 -6.42,0.697 -6.42,0.697 l -0.184,0.04 C -6.79,0.778 -6.978,0.818 -7.161,0.864 l -0.81,0.223 C -8.144,1.134 -8.316,1.181 -8.485,1.232 -8.626,1.274 -8.762,1.321 -8.899,1.368 L -9.264,1.49 c -0.204,0.067 -0.353,0.116 -0.498,0.17 -0.13,0.047 -0.595,0.233 -0.595,0.233 l -0.171,0.067 c -0.172,0.067 -0.319,0.124 -0.46,0.186 l -0.705,0.324 c -0.156,0.071 -0.312,0.142 -0.464,0.218 -0.133,0.067 -0.541,0.288 -0.541,0.288 0,0 -0.567,0.308 -0.569,0.309 -0.119,0.069 -0.608,0.374 -0.608,0.374 -0.146,0.09 -0.292,0.18 -0.435,0.275 -0.086,0.058 -0.566,0.401 -0.566,0.401 -0.142,0.102 -0.278,0.198 -0.407,0.298 -0.118,0.091 -0.23,0.185 -0.342,0.279 l -0.095,0.079 0.029,0.236 -0.128,-0.154 c -0.122,0.101 -0.245,0.202 -0.362,0.308 -0.105,0.094 -0.206,0.192 -0.306,0.29 l -0.156,0.15 c -0.12,0.116 -0.24,0.231 -0.354,0.35 -0.101,0.107 -0.196,0.215 -0.29,0.323 l 0.078,0.214 -0.15,-0.132 c -0.158,0.179 -0.268,0.305 -0.371,0.433 -0.059,0.073 -0.319,0.424 -0.319,0.424 -0.074,0.1 -0.145,0.199 -0.215,0.299 -0.023,0.034 -0.036,0.073 -0.036,0.114 v 13.525 c 0,0.035 0.008,0.082 0.026,0.112 L -18.3,53.137 v 23.191 c 0,36.392 -29.607,66 -66,66 h -27 c -36.392,0 -66,-29.608 -66,-66 v -29.02 c 0,-0.071 -0.037,-0.136 -0.098,-0.172 -13.455,-7.937 -25.754,-17.717 -36.557,-29.067 -0.038,-0.041 -0.091,-0.063 -0.145,-0.063 -0.025,0 -0.05,0.005 -0.074,0.015 -0.076,0.03 -0.126,0.104 -0.126,0.186 v 94.133 c 0,35.29 28.711,64 64,64 h 105 c 35.29,0 64,-28.71 64,-64 L 18.7,8.503 C 18.7,8.467 18.69,8.432 18.672,8.401 18.602,8.282 18.527,8.165 18.451,8.047 L 18.381,7.936 C 18.295,7.802 18.231,7.703 18.162,7.605 18.071,7.477 17.973,7.352 17.875,7.227 L 17.691,6.994 C 17.616,6.898 17.542,6.802 17.462,6.709 17.356,6.585 17.244,6.467 17.132,6.349 c 0,0 -0.36,-0.383 -0.448,-0.471 C 16.54,5.735 16.411,5.62 16.28,5.503 L 16.067,5.311 C 15.972,5.223 15.876,5.136 15.774,5.052 15.634,4.935 15.487,4.822 15.341,4.709 c 0,0 -0.45,-0.347 -0.541,-0.412 C 14.649,4.188 14.492,4.085 14.335,3.982 L 14.139,3.852 C 13.965,3.735 13.857,3.663 13.744,3.594 c -0.197,-0.119 -0.34,-0.2 -0.482,-0.281 0,0 -0.535,-0.308 -0.648,-0.367 -0.169,-0.09 -0.344,-0.175 -0.52,-0.26 0,0 -0.573,-0.284 -0.679,-0.331 C 11.234,2.272 11.047,2.195 10.859,2.118 L 10.712,2.057 c 0,0 -0.438,-0.186 -0.559,-0.233 C 9.967,1.752 9.776,1.686 9.585,1.62 9.585,1.62 8.969,1.4 8.832,1.356 8.636,1.292 8.435,1.235 8.232,1.177 L 8.059,1.127 C 8.057,1.122 7.463,0.954 7.458,0.952 7.26,0.9 7.06,0.854 6.858,0.808 L 6.65,0.76 C 6.65,0.76 6.173,0.645 6.038,0.617 5.813,0.569 5.585,0.53 5.356,0.49 c 0,0 -0.68,-0.124 -0.78,-0.139 C 4.338,0.314 4.098,0.285 3.855,0.256 L 3.08,0.158 C 2.783,0.127 2.481,0.107 2.182,0.087 L 1.553,0.04 C 1.039,0.014 0.521,0 0,0" /></g><g
           transform="translate(305,48)"
           id="g36"><path
             id="path38"
             style="fill:#00a79d;fill-opacity:1;fill-rule:nonzero;stroke:none"
             d="m 0,0 c -91.533,0 -166,74.468 -166,166 0,40.652 14.916,79.8 42,110.232 0.661,0.743 1.326,1.48 2,2.21 10.854,11.767 23.302,21.891 37,30.09 0.665,0.398 1.33,0.796 2,1.184 25.145,14.578 53.846,22.284 83,22.284 25.16,0 49.347,-5.514 71.887,-16.389 0.069,-0.033 0.113,-0.104 0.113,-0.18 v -44.585 l 0.165,-0.273 c 0.482,-0.744 1.097,-1.5 1.822,-2.24 0.026,-0.027 0.05,-0.075 0.058,-0.11 0.032,0 0.321,-0.271 0.321,-0.271 l 0.31,-0.294 c 0.223,-0.203 0.459,-0.402 0.7,-0.599 l 0.227,-0.189 c 0.316,-0.251 0.649,-0.497 0.993,-0.735 l 0.25,-0.163 c 0.268,-0.18 0.539,-0.356 0.817,-0.524 l 0.399,-0.23 c 0.242,-0.14 0.487,-0.278 0.737,-0.409 0.148,-0.079 0.3,-0.155 0.451,-0.231 0.248,-0.124 0.5,-0.244 0.755,-0.361 l 0.469,-0.211 c 0.271,-0.117 0.548,-0.229 0.829,-0.338 l 0.436,-0.172 c 0.358,-0.133 0.725,-0.259 1.182,-0.408 l 0.127,-0.043 c 0.44,-0.139 0.892,-0.267 1.35,-0.387 l 0.402,-0.097 c 0.329,-0.081 0.659,-0.159 0.994,-0.23 l 0.526,-0.102 c 0.302,-0.058 0.606,-0.113 0.912,-0.163 l 0.566,-0.085 c 0.265,-0.037 0.545,-0.072 0.879,-0.11 l 0.122,-0.216 0.02,0.199 0.465,-0.049 c 0.334,-0.032 0.673,-0.055 1.014,-0.076 l 0.488,-0.031 c 0.506,-0.024 1.009,-0.038 1.514,-0.038 0.533,0 1.062,0.015 1.587,0.041 l 0.518,0.033 c 0.359,0.023 0.715,0.048 1.069,0.082 l 0.582,0.064 c 0.327,0.038 0.652,0.08 0.975,0.127 l 0.577,0.09 c 0.33,0.054 0.656,0.116 0.981,0.181 l 0.517,0.104 c 0.385,0.084 0.768,0.178 1.148,0.277 l 0.3,0.074 c 0.468,0.128 0.934,0.268 1.392,0.419 l 0.351,0.124 c 0.337,0.116 0.67,0.236 0.996,0.363 l 0.466,0.191 c 0.281,0.116 0.56,0.236 0.834,0.361 l 0.47,0.221 0.89,0.456 0.327,0.178 c 0.284,0.159 0.56,0.324 0.83,0.493 l 0.321,0.195 c 0.365,0.237 0.724,0.484 1.07,0.741 l 0.142,0.111 c 0.294,0.225 0.577,0.451 0.849,0.685 l 0.311,0.279 c 0.208,0.189 0.412,0.378 0.608,0.573 0.11,0.11 0.215,0.22 0.319,0.331 0.873,0.919 1.592,1.888 2.142,2.88 l 0.069,0.141 0.072,0.192 -0.013,0.155 v 15.191 c 0,0.079 0.048,0.152 0.121,0.183 0.025,0.012 0.052,0.017 0.079,0.017 0.05,0 0.099,-0.019 0.137,-0.054 C 146.805,255.83 166,211.669 166,166 166,74.468 91.532,0 0,0" /></g></g></g><g
       id="g40"><g
         clip-path="url(#clipPath46)"
         id="g42"><g
           transform="translate(356.1915,345.7805)"
           id="g48"><path
             id="path50"
             style="fill:#9fc1be;fill-opacity:1;fill-rule:nonzero;stroke:none"
             d="m 0,0 c -4.345,-7.253 -14.428,-6.359 -20.038,-12.094 -1.449,-1.482 -2.887,-3.59 -2.548,-5.831 0.187,-1.233 1.082,-2.464 1.512,-3.657 0.544,-1.512 1.347,-3.349 0.96,-4.986 -0.585,-2.473 -2.316,-5.595 -3.276,-8.149 -1.657,-4.411 -5.067,-8.147 -7.813,-11.929 -3.515,-4.84 -6.703,-9.751 -8.854,-15.312 9.09,1.994 16.733,10.043 26.512,8.981 8.601,-0.934 12.496,-14.311 21.914,-7.066 2.875,2.212 7.308,3.389 9.517,-0.95 0.569,-1.116 0.143,-2.357 0.185,-3.537 0.099,-2.782 1.091,-4.34 2.923,-6.522 2.473,-2.947 5.185,-6.211 7.911,-8.929 5.878,-5.861 13.371,4.125 18.92,6.151 7.472,2.728 14.334,-5.043 20.245,-8.033 5.029,-2.544 10.198,0.69 15.206,-2.508 2.543,-1.623 4.17,-4.067 5.301,-6.814 1.489,-3.622 2.051,-7.624 4.884,-10.511 2.571,-2.621 5.591,-4.698 7.884,-7.591 3.216,-4.059 5.677,-8.027 10.158,-10.866 1.131,-0.717 2.134,-1.432 3.026,-2.226 -2.439,42.283 -21.219,82.584 -52.384,111.757 -0.038,0.036 -0.086,0.054 -0.136,0.054 -0.028,0 -0.054,-0.005 -0.079,-0.016 -0.074,-0.032 -0.121,-0.104 -0.121,-0.184 v -15.191 l 0.012,-0.155 -0.071,-0.192 -0.069,-0.14 c -0.55,-0.993 -1.27,-1.962 -2.142,-2.881 -0.104,-0.111 -0.21,-0.221 -0.319,-0.331 -0.197,-0.195 -0.401,-0.384 -0.609,-0.572 l -0.31,-0.279 c -0.273,-0.234 -0.556,-0.461 -0.85,-0.685 l -0.141,-0.112 c -0.346,-0.257 -0.706,-0.503 -1.071,-0.74 l -0.32,-0.196 c -0.271,-0.168 -0.546,-0.334 -0.83,-0.493 l -0.327,-0.177 -0.891,-0.456 -0.47,-0.221 c -0.273,-0.126 -0.552,-0.245 -0.834,-0.362 l -0.465,-0.191 c -0.327,-0.127 -0.66,-0.246 -0.997,-0.363 l -0.35,-0.123 c -0.458,-0.151 -0.924,-0.292 -1.393,-0.419 l -0.3,-0.075 c -0.379,-0.099 -0.762,-0.193 -1.147,-0.277 l -0.518,-0.104 c -0.325,-0.065 -0.65,-0.126 -0.98,-0.181 l -0.577,-0.089 c -0.323,-0.047 -0.649,-0.089 -0.976,-0.127 l -0.582,-0.064 c -0.353,-0.034 -0.71,-0.059 -1.068,-0.083 l -0.519,-0.033 c -0.524,-0.025 -1.053,-0.041 -1.587,-0.041 -0.505,0 -1.007,0.015 -1.513,0.038 l -0.489,0.031 c -0.34,0.021 -0.679,0.045 -1.013,0.076 l -0.465,0.049 -0.021,-0.199 -0.122,0.216 c -0.334,0.038 -0.613,0.073 -0.879,0.111 l -0.565,0.085 c -0.307,0.049 -0.61,0.104 -0.912,0.162 l -0.527,0.103 c -0.334,0.07 -0.665,0.149 -0.994,0.23 l -0.401,0.097 c -0.458,0.119 -0.91,0.248 -1.351,0.386 l -0.127,0.043 c -0.457,0.15 -0.824,0.276 -1.181,0.408 l -0.437,0.173 c -0.28,0.109 -0.557,0.22 -0.829,0.338 l -0.469,0.21 c -0.254,0.118 -0.506,0.238 -0.754,0.362 -0.152,0.075 -0.303,0.152 -0.452,0.23 -0.25,0.132 -0.495,0.269 -0.737,0.409 l -0.398,0.231 c -0.279,0.168 -0.549,0.343 -0.818,0.523 l -0.25,0.164 c -0.344,0.238 -0.677,0.484 -0.993,0.735 l -0.226,0.188 c -0.242,0.197 -0.477,0.397 -0.701,0.599 l -0.309,0.295 c 0,0 -0.289,0.27 -0.322,0.27 -0.007,0.036 -0.032,0.084 -0.057,0.11 -0.726,0.74 -1.34,1.496 -1.822,2.24 l -0.165,0.274 V 17.65 c 0,0.077 -0.044,0.147 -0.114,0.18 C 14.397,20.869 7.966,23.473 1.426,25.672 1.998,17.228 4.537,7.573 0,0" /></g><g
           transform="translate(362.5913,76.5845)"
           id="g52"><path
             id="path54"
             style="fill:#9fc1be;fill-opacity:1;fill-rule:nonzero;stroke:none"
             d="m 0,0 c -6.383,1.876 -13.836,0.384 -19.827,3.703 -2.014,1.116 -2.404,3.218 -3.895,4.393 -1.182,0.932 -4.712,0.815 -6.473,1.573 -4.75,2.046 -7.593,6.494 -11.279,9.884 C -54.873,31.877 -66.741,14.935 -77.701,8.369 -82.188,5.681 -87.145,4.806 -91.97,7.2 c -3.991,1.98 -7.244,5.409 -10.835,7.984 -2.609,1.871 -4.483,2.186 -7.478,2.941 -1.032,0.261 -2.409,0.483 -3.237,1.272 -1.735,1.656 -0.982,3.841 -1.501,6.022 -0.949,3.988 -4.658,4.128 -7.364,6.304 -5.244,4.215 -4.864,12.329 -5.475,18.643 -5.012,-3.889 -5.407,-10.468 -9.251,-15.551 -1.59,-2.102 -3.844,-3.947 -5.125,-6.252 -2.054,-3.698 0.271,-7.082 2.329,-10.219 0.319,-0.486 0.142,-1.366 -0.423,-1.613 -7.008,-3.069 -12.196,-7.307 -13.348,-14.608 27.136,-19.328 60.307,-30.708 96.087,-30.708 24.499,0 47.773,5.34 68.726,14.909 C 9.987,-7.506 7.123,-2.093 0,0" /></g><g
           transform="translate(185.4269,323.4235)"
           id="g56"><path
             id="path58"
             style="fill:#9fc1be;fill-opacity:1;fill-rule:nonzero;stroke:none"
             d="m 0,0 c 3.069,-1.098 5.271,-3.524 7.436,-5.868 1.014,-1.098 2.68,-3.638 4.158,-4.184 3.108,-1.149 3.227,4.356 3.467,6.295 0.095,0.77 0.675,1.329 1.492,1.137 10.068,-2.364 13.468,-16.668 24.16,-16.89 12.773,-0.264 9.516,16.251 9.766,24.461 0.242,7.96 3.006,15.707 11.556,17.476 4.245,0.879 9.228,0.29 12.78,3.175 4.746,3.853 3.807,10.251 2.999,15.552 C 77.242,44.907 77.1,48.25 77.752,51.198 63.368,47.45 49.499,41.787 36.573,34.293 c -0.67,-0.389 -1.335,-0.786 -2,-1.184 C 20.875,24.91 8.427,14.786 -2.427,3.019 -2.585,2.848 -2.738,2.673 -2.895,2.501 -1.723,1.87 -0.671,1.126 0,0" /></g><g
           transform="translate(179.9125,106.6971)"
           id="g60"><path
             id="path62"
             style="fill:#9fc1be;fill-opacity:1;fill-rule:nonzero;stroke:none"
             d="m 0,0 c 0.25,0.593 0.942,1.038 1.682,0.654 5.068,-2.623 10.578,-6.802 16.555,-6.107 2.596,0.301 9.063,3.198 7.963,6.704 -0.346,1.102 -2.158,2.153 -2.891,3.027 -3.703,4.415 -1.61,9.387 1.979,13.18 3.03,3.203 7.323,6.163 7.011,11.066 -0.21,3.292 -3.842,5.113 -3.719,8.541 0.215,6.032 8.489,6.722 13.396,7.949 -0.689,1.041 -1.267,1.283 -3.015,1.283 -0.998,0 -1.836,-0.338 -2.865,-0.223 -1.288,0.143 -2.48,0.536 -3.475,1.407 -2.397,2.098 -2.461,5.642 -1.361,8.409 4.154,10.443 17.74,8.289 26.521,8.232 3.036,-0.02 6.797,-0.096 9.545,1.429 4.799,2.664 2.677,6.217 3.194,10.313 0.531,4.201 3.499,5.195 7.298,5.487 6.114,0.469 14.143,-1.898 18.702,3.495 4.559,5.392 1.523,13.477 -0.817,19.414 -9.544,-2.27 -19.359,-3.773 -29.188,-3.532 -3.815,0.093 -7.794,0.205 -11.247,2.022 -2.796,1.472 -4.771,4.035 -7.538,5.555 -9.064,4.98 -22.474,2.818 -32.392,2.866 -9.611,0.046 -21.671,-0.294 -29.962,5.436 -3.177,2.196 -6.159,5.91 -5.926,9.981 0.226,3.96 3.136,7.125 4.501,10.695 1.489,3.898 1.729,7.717 0.731,11.732 -0.904,3.641 -1.64,7.141 -2.281,10.834 -0.711,4.1 -1.419,8.427 -5.936,9.738 -1.594,0.463 -3.223,0.705 -4.868,0.845 -8.193,-19.862 -12.51,-41.277 -12.51,-63.129 0,-41.281 15.168,-79.071 40.198,-108.141 C -0.495,-0.545 -0.256,-0.266 0,0" /></g><g
           transform="translate(456.003,145.0838)"
           id="g64"><path
             id="path66"
             style="fill:#9fc1be;fill-opacity:1;fill-rule:nonzero;stroke:none"
             d="m 0,0 c -0.218,0.199 -0.437,0.392 -0.66,0.581 -6.086,5.144 -13.643,8.85 -20.364,13.098 -5.511,3.484 -10.818,7.196 -15.774,11.399 1.609,-5.873 2.5,-11.001 -1.763,-16.638 -2.215,-2.929 -6.641,-5.557 -8.053,-8.958 -1.196,-2.88 2.148,-6.927 3.286,-9.487 1.952,-4.39 0.933,-11.268 4.899,-14.268 3.401,-2.572 6.107,-3.071 8.008,-7.313 1.707,-3.811 1.857,-7.781 1.546,-11.802 C -17.111,-30.607 -7.324,-15.981 0,0" /></g></g></g><g
       id="g68"><g
         clip-path="url(#clipPath74)"
         id="g70"><g
           transform="translate(403.8776,278.9065)"
           id="g76"><path
             id="path78"
             style="fill:#ffffff;fill-opacity:1;fill-rule:nonzero;stroke:none"
             d="m 0,0 c -63.972,-39.977 -132.365,-72.593 -203.712,-97.098 -2.401,-0.824 -1.369,-4.659 1.055,-3.827 71.664,24.614 140.402,57.343 204.66,97.498 C 4.164,-2.076 2.174,1.359 0,0" /></g><g
           transform="translate(217.4507,333.1014)"
           id="g80"><path
             id="path82"
             style="fill:#ffffff;fill-opacity:1;fill-rule:nonzero;stroke:none"
             d="m 0,0 c -5.442,-48.038 -12.319,-95.902 -20.612,-143.531 -0.434,-2.498 3.389,-3.57 3.827,-1.055 C -8.431,-96.608 -1.514,-48.39 3.969,0 4.256,2.534 0.285,2.513 0,0" /></g><g
           transform="translate(415.16,252.9968)"
           id="g84"><path
             id="path86"
             style="fill:#ffffff;fill-opacity:1;fill-rule:nonzero;stroke:none"
             d="m 0,0 c 0.008,2.554 -3.961,2.558 -3.969,0 -0.102,-34.277 1.319,-68.533 4.26,-102.684 0.218,-2.525 4.189,-2.548 3.969,0 C 1.319,-68.533 -0.102,-34.277 0,0" /></g><g
           transform="translate(390.363,159.436)"
           id="g88"><path
             id="path90"
             style="fill:#ffffff;fill-opacity:1;fill-rule:nonzero;stroke:none"
             d="m 0,0 c -57.926,3.825 -115.757,8.997 -173.443,15.513 -2.533,0.287 -2.513,-3.684 0,-3.968 C -115.757,5.028 -57.926,-0.144 0,-3.969 2.55,-4.137 2.54,-0.168 0,0" /></g><g
           transform="translate(430.4523,110.4971)"
           id="g92"><path
             id="path94"
             style="fill:#ffffff;fill-opacity:1;fill-rule:nonzero;stroke:none"
             d="m 0,0 c -13.516,2.138 -26.966,4.667 -40.339,7.551 2.359,1.176 4.72,2.347 7.075,3.531 2.282,1.146 0.275,4.571 -2.003,3.426 -3.739,-1.878 -7.485,-3.744 -11.232,-5.605 -17.069,3.835 -34.002,8.27 -50.75,13.349 -31.192,9.459 -61.428,22.771 -93.559,28.867 -2.496,0.473 -3.566,-3.351 -1.055,-3.827 32.133,-6.096 62.363,-19.415 93.559,-28.867 15.254,-4.622 30.659,-8.712 46.179,-12.306 -29.5,-14.572 -59.254,-28.626 -89.254,-42.144 -2.324,-1.047 -0.309,-4.468 2.004,-3.426 31.402,14.149 62.537,28.88 93.392,44.185 C -31.101,1.423 -16.12,-1.444 -1.055,-3.827 1.444,-4.222 2.52,-0.398 0,0" /></g><g
           transform="translate(267.4674,66.7252)"
           id="g96"><path
             id="path98"
             style="fill:#ffffff;fill-opacity:1;fill-rule:nonzero;stroke:none"
             d="m 0,0 c -19.709,30.204 -39.191,60.555 -58.443,91.052 -1.36,2.154 -4.796,0.165 -3.427,-2.003 C -42.618,58.552 -23.136,28.201 -3.427,-2.003 -2.036,-4.134 1.401,-2.147 0,0" /></g><g
           transform="translate(190.9103,202.9254)"
           id="g100"><path
             id="path102"
             style="fill:#ffffff;fill-opacity:1;fill-rule:nonzero;stroke:none"
             d="m 0,0 c -17.275,12.228 -28.26,30.635 -38.795,48.541 -1.295,2.2 -4.727,0.205 -3.427,-2.003 C -31.307,27.985 -19.886,9.231 -2.003,-3.427 0.086,-4.905 2.07,-1.465 0,0" /></g><g
           transform="translate(404.4313,289.6021)"
           id="g104"><path
             id="path106"
             style="fill:#ffffff;fill-opacity:1;fill-rule:nonzero;stroke:none"
             d="m 0,0 c -29.633,2.261 -56.364,16.344 -84.924,23.246 -14.752,3.566 -29.923,4.719 -44.221,10.095 -12.997,4.888 -25.437,11.332 -39.595,11.807 -2.554,0.086 -2.551,-3.883 0,-3.968 14.925,-0.501 27.968,-8.069 41.774,-12.839 14.38,-4.969 29.728,-5.937 44.399,-9.782 C -54.912,11.311 -28.85,-1.767 0,-3.969 2.547,-4.163 2.535,-0.193 0,0" /></g><g
           transform="translate(439.0351,312.1304)"
           id="g108"><path
             id="path110"
             style="fill:#ffffff;fill-opacity:1;fill-rule:nonzero;stroke:none"
             d="m 0,0 c -7.944,-3.583 -15.253,-8.144 -22.029,-13.616 -1.988,-1.605 0.836,-4.398 2.806,-2.807 6.506,5.254 13.607,9.559 21.226,12.996 C 4.328,-2.378 2.312,1.043 0,0" /></g><g
           transform="translate(442,129)"
           id="g112"><path
             id="path114"
             style="fill:#ffffff;fill-opacity:1;fill-rule:nonzero;stroke:none"
             d="m 0,0 c 0,-5.247 -4.253,-9.5 -9.5,-9.5 -5.247,0 -9.5,4.253 -9.5,9.5 0,5.247 4.253,9.5 9.5,9.5 C -4.253,9.5 0,5.247 0,0" /></g><g
           transform="translate(287,58.5)"
           id="g116"><path
             id="path118"
             style="fill:#ffffff;fill-opacity:1;fill-rule:nonzero;stroke:none"
             d="m 0,0 c 0,-4.418 -3.582,-8 -8,-8 -4.418,0 -8,3.582 -8,8 0,4.418 3.582,8 8,8 4.418,0 8,-3.582 8,-8" /></g><g
           transform="translate(206.5,176.25)"
           id="g120"><path
             id="path122"
             style="fill:#ffffff;fill-opacity:1;fill-rule:nonzero;stroke:none"
             d="m 0,0 c 0,-6.213 -5.037,-11.25 -11.25,-11.25 -6.213,0 -11.25,5.037 -11.25,11.25 0,6.213 5.037,11.25 11.25,11.25 C -5.037,11.25 0,6.213 0,0" /></g><g
           transform="translate(423.5,286.5)"
           id="g124"><path
             id="path126"
             style="fill:#ffffff;fill-opacity:1;fill-rule:nonzero;stroke:none"
             d="m 0,0 c 0,-7.18 -5.82,-13 -13,-13 -7.18,0 -13,5.82 -13,13 0,7.18 5.82,13 13,13 C -5.82,13 0,7.18 0,0" /></g><g
           transform="translate(237,334.75)"
           id="g128"><path
             id="path130"
             style="fill:#ffffff;fill-opacity:1;fill-rule:nonzero;stroke:none"
             d="m 0,0 c 0,-5.661 -4.589,-10.25 -10.25,-10.25 -5.661,0 -10.25,4.589 -10.25,10.25 0,5.661 4.589,10.25 10.25,10.25 C -4.589,10.25 0,5.661 0,0" /></g></g></g><g
       id="g132"><g
         clip-path="url(#clipPath138)"
         id="g134"><g
           id="g140"><g
             id="g142" /><g
             id="g170"><g
               style="opacity:0.35000604"
               id="g168"
               clip-path="url(#clipPath146)"><g
                 id="g166"><g
                   id="g164"
                   clip-path="url(#clipPath150)"><g
                     id="g162"><g
                       id="g160"><path
                         id="path158"
                         style="fill:url(#radialGradient156);stroke:none"
                         d="m 397.3,311.66 c -0.5,0 -0.996,0.012 -1.489,0.036 l -0.626,0.044 c -0.288,0.018 -0.565,0.036 -0.839,0.062 l -0.788,0.094 c -0.229,0.027 -0.44,0.051 -0.649,0.082 l -1.404,0.241 c -0.141,0.028 -0.625,0.138 -0.625,0.138 l -0.184,0.04 c -0.186,0.04 -0.374,0.081 -0.557,0.127 l -0.81,0.223 c -0.173,0.046 -0.346,0.093 -0.515,0.145 -0.14,0.042 -0.276,0.088 -0.414,0.135 l -0.364,0.122 c -0.204,0.068 -0.353,0.117 -0.498,0.17 -0.13,0.048 -0.596,0.234 -0.596,0.234 l -0.171,0.067 c -0.171,0.067 -0.318,0.124 -0.459,0.186 l -0.706,0.323 c -0.155,0.071 -0.311,0.143 -0.463,0.219 -0.133,0.067 -0.541,0.288 -0.541,0.288 0,0 -0.567,0.307 -0.569,0.308 -0.119,0.07 -0.608,0.375 -0.608,0.375 -0.147,0.089 -0.292,0.18 -0.435,0.275 -0.086,0.057 -0.566,0.401 -0.566,0.401 -0.142,0.101 -0.278,0.197 -0.407,0.298 -0.119,0.091 -0.23,0.185 -0.342,0.279 l -0.095,0.079 0.028,0.236 -0.128,-0.155 c -0.122,0.101 -0.245,0.203 -0.361,0.309 -0.105,0.093 -0.206,0.191 -0.307,0.29 l -0.155,0.149 c -0.12,0.116 -0.24,0.232 -0.354,0.351 -0.101,0.106 -0.197,0.214 -0.29,0.323 l 0.078,0.214 -0.151,-0.132 c -0.157,0.179 -0.267,0.305 -0.371,0.432 -0.058,0.074 -0.318,0.424 -0.318,0.424 -0.074,0.1 -0.146,0.2 -0.215,0.3 -0.023,0.033 -0.036,0.073 -0.036,0.114 v 13.524 c 0,0.035 0.008,0.083 0.025,0.113 L 379,364.796 v 23.191 c 0,36.393 -29.607,66 -66,66 h -27 c -36.393,0 -66,-29.607 -66,-66 v -29.019 c 0,-0.071 -0.038,-0.136 -0.099,-0.173 -13.454,-7.937 -25.754,-17.716 -36.556,-29.066 -0.038,-0.041 -0.091,-0.063 -0.145,-0.063 -0.025,0 -0.05,0.005 -0.074,0.015 -0.076,0.03 -0.126,0.104 -0.126,0.185 L 183,424 c 0,35.29 28.71,64 64,64 h 105 c 35.29,0 64,-28.71 64,-64 V 320.163 c 0,-0.037 -0.01,-0.072 -0.028,-0.102 -0.071,-0.119 -0.145,-0.237 -0.221,-0.354 l -0.07,-0.111 c -0.086,-0.134 -0.15,-0.234 -0.219,-0.331 -0.091,-0.128 -0.19,-0.254 -0.287,-0.378 l -0.184,-0.233 c -0.075,-0.096 -0.149,-0.192 -0.229,-0.285 -0.106,-0.124 -0.218,-0.242 -0.33,-0.361 0,0 -0.36,-0.383 -0.449,-0.47 -0.143,-0.143 -0.272,-0.259 -0.403,-0.375 l -0.213,-0.193 c -0.096,-0.087 -0.191,-0.174 -0.293,-0.259 -0.14,-0.117 -0.287,-0.23 -0.433,-0.342 0,0 -0.451,-0.348 -0.541,-0.412 -0.151,-0.109 -0.308,-0.212 -0.465,-0.315 l -0.197,-0.13 c -0.173,-0.117 -0.281,-0.189 -0.394,-0.259 -0.197,-0.118 -0.34,-0.2 -0.482,-0.28 0,0 -0.536,-0.308 -0.648,-0.368 -0.169,-0.089 -0.345,-0.175 -0.52,-0.26 0,0 -0.574,-0.283 -0.679,-0.33 -0.181,-0.083 -0.368,-0.161 -0.556,-0.238 l -0.147,-0.06 c 0,0 -0.438,-0.186 -0.559,-0.233 -0.186,-0.072 -0.377,-0.138 -0.568,-0.204 0,0 -0.616,-0.22 -0.753,-0.264 -0.196,-0.064 -0.398,-0.121 -0.6,-0.179 l -0.174,-0.05 c -0.002,-0.006 -0.595,-0.174 -0.6,-0.175 -0.198,-0.052 -0.399,-0.098 -0.6,-0.144 l -0.208,-0.048 c 0,0 -0.477,-0.116 -0.612,-0.144 -0.225,-0.047 -0.453,-0.087 -0.682,-0.126 0,0 -0.68,-0.124 -0.78,-0.14 -0.238,-0.036 -0.479,-0.065 -0.721,-0.094 l -0.775,-0.099 c -0.297,-0.03 -0.599,-0.05 -0.899,-0.07 l -0.628,-0.047 c -0.514,-0.027 -1.033,-0.04 -1.553,-0.04" /></g></g></g></g></g></g></g><g
           id="g172"><g
             id="g174" /><g
             id="g202"><g
               style="opacity:0.35000604"
               id="g200"
               clip-path="url(#clipPath178)"><g
                 id="g198"><g
                   id="g196"
                   clip-path="url(#clipPath182)"><g
                     id="g194"><g
                       id="g192"><path
                         id="path190"
                         style="fill:url(#radialGradient188);stroke:none"
                         d="m 305,48 c -91.533,0 -166,74.468 -166,166 0,40.652 14.916,79.8 42,110.232 0.661,0.743 1.326,1.48 2,2.21 10.854,11.767 23.302,21.891 37,30.09 0.665,0.398 1.33,0.796 2,1.184 25.145,14.578 53.846,22.284 83,22.284 25.16,0 49.347,-5.514 71.887,-16.389 0.069,-0.033 0.113,-0.104 0.113,-0.18 v -44.585 l 0.165,-0.273 c 0.482,-0.744 1.097,-1.5 1.822,-2.24 0.026,-0.027 0.05,-0.075 0.058,-0.11 0.032,0 0.321,-0.271 0.321,-0.271 l 0.31,-0.294 c 0.223,-0.203 0.459,-0.402 0.7,-0.599 l 0.227,-0.189 c 0.316,-0.251 0.649,-0.497 0.993,-0.735 l 0.25,-0.163 c 0.268,-0.18 0.539,-0.356 0.817,-0.524 l 0.399,-0.23 c 0.242,-0.14 0.487,-0.278 0.737,-0.409 0.148,-0.079 0.3,-0.155 0.451,-0.231 0.248,-0.124 0.5,-0.244 0.755,-0.361 l 0.469,-0.211 c 0.271,-0.117 0.548,-0.229 0.829,-0.338 l 0.436,-0.172 c 0.358,-0.133 0.725,-0.259 1.182,-0.408 l 0.127,-0.043 c 0.44,-0.139 0.892,-0.267 1.35,-0.387 l 0.402,-0.097 c 0.329,-0.081 0.659,-0.159 0.994,-0.23 l 0.526,-0.102 c 0.302,-0.058 0.606,-0.113 0.912,-0.163 l 0.566,-0.085 c 0.265,-0.037 0.545,-0.072 0.879,-0.11 l 0.122,-0.216 0.02,0.199 0.465,-0.049 c 0.334,-0.032 0.673,-0.055 1.014,-0.076 l 0.488,-0.031 c 0.506,-0.024 1.009,-0.038 1.514,-0.038 0.533,0 1.062,0.015 1.587,0.041 l 0.518,0.033 c 0.359,0.023 0.715,0.048 1.069,0.082 l 0.582,0.064 c 0.327,0.038 0.652,0.08 0.975,0.127 l 0.577,0.09 c 0.33,0.054 0.656,0.116 0.981,0.181 l 0.517,0.104 c 0.385,0.084 0.768,0.178 1.148,0.277 l 0.3,0.074 c 0.468,0.128 0.934,0.268 1.392,0.419 l 0.351,0.124 c 0.337,0.116 0.67,0.236 0.996,0.363 l 0.466,0.191 c 0.281,0.116 0.56,0.236 0.834,0.361 l 0.469,0.221 0.891,0.456 0.327,0.178 c 0.284,0.159 0.56,0.324 0.83,0.493 l 0.321,0.195 c 0.365,0.237 0.724,0.484 1.07,0.741 l 0.142,0.111 c 0.294,0.225 0.577,0.451 0.849,0.685 l 0.311,0.279 c 0.208,0.189 0.412,0.378 0.608,0.573 0.11,0.11 0.215,0.22 0.319,0.331 0.873,0.919 1.592,1.888 2.142,2.88 l 0.069,0.141 0.072,0.192 -0.013,0.155 v 15.191 c 0,0.079 0.048,0.152 0.121,0.183 0.025,0.012 0.052,0.017 0.079,0.017 0.05,0 0.099,-0.019 0.137,-0.054 C 451.805,303.83 471,259.669 471,214 471,122.468 396.532,48 305,48" /></g></g></g></g></g></g></g></g></g><g
       id="g204"><g
         clip-path="url(#clipPath210)"
         id="g206"><g
           id="g212"><g
             id="g214" /><g
             id="g226"><g
               style="opacity:0.14999402"
               id="g224"
               clip-path="url(#clipPath218)"><g
                 id="g222"
                 transform="translate(390.6763,312.4015)"><path
                   id="path220"
                   style="fill:#414042;fill-opacity:1;fill-rule:nonzero;stroke:none"
                   d="m 0,0 c 0.45,8.515 0.88,17.031 1.032,25.557 0.338,18.958 -2.281,37.262 -4.686,55.994 -1.888,14.714 -4.223,30.263 -14.856,41.439 -8.116,8.53 -18.749,14.354 -29.703,18.408 -22.801,8.439 -48.299,10.6 -72.407,8.38 -22.553,-2.077 -51.536,-8.262 -61.772,-31.179 -3.035,-6.796 -3.734,-14.288 -4.967,-21.55 -1.435,-8.453 -2.908,-16.901 -4.105,-25.391 -1.929,-13.692 -3.177,-27.625 -2.108,-41.421 7.142,6 14.758,11.414 22.797,16.157 0.061,0.036 0.099,0.101 0.099,0.172 v 29.02 c 0,36.392 29.607,66 66,66 h 27 c 36.392,0 66,-29.608 66,-66 V 52.395 l 0.025,-31.653 c -0.018,-0.031 -0.025,-0.078 -0.025,-0.113 V 7.104 c 0,-0.041 0.012,-0.08 0.036,-0.114 0.069,-0.1 0.14,-0.199 0.215,-0.299 0,0 0.259,-0.351 0.318,-0.424 0.104,-0.128 0.214,-0.253 0.371,-0.433 l 0.15,0.133 -0.078,-0.215 c 0.094,-0.108 0.19,-0.216 0.29,-0.322 0.115,-0.12 0.235,-0.235 0.355,-0.351 l 0.155,-0.15 c 0.101,-0.098 0.201,-0.196 0.307,-0.29 0.116,-0.105 0.239,-0.207 0.361,-0.308 L -9.068,4.485 -9.096,4.249 -9.002,4.17 c 0.113,-0.093 0.224,-0.188 0.342,-0.279 0.129,-0.1 0.266,-0.196 0.407,-0.297 0,0 0.481,-0.344 0.567,-0.402 0.142,-0.094 0.288,-0.185 0.434,-0.275 0,0 0.49,-0.304 0.609,-0.374 0.002,-0.001 0.568,-0.309 0.568,-0.309 0,0 0.408,-0.221 0.541,-0.287 0.153,-0.077 0.309,-0.148 0.464,-0.219 l 0.705,-0.324 c 0.142,-0.061 0.288,-0.118 0.46,-0.185 l 0.171,-0.068 c 0,0 0.466,-0.186 0.596,-0.233 0.144,-0.053 0.294,-0.103 0.498,-0.17 L -2.276,0.626 C -2.138,0.579 -2.003,0.533 -1.862,0.49 -1.693,0.439 -1.52,0.392 -1.347,0.345 L -0.538,0.122 C -0.361,0.078 -0.18,0.039 0,0" /></g></g></g></g><g
           id="g228"><g
             id="g230" /><g
             id="g242"><g
               style="opacity:0.14999402"
               id="g240"
               clip-path="url(#clipPath234)"><g
                 id="g238"
                 transform="translate(466.8251,250.7122)"><path
                   id="path236"
                   style="fill:#414042;fill-opacity:1;fill-rule:nonzero;stroke:none"
                   d="m 0,0 c -1.083,-12.281 -2.684,-24.509 -5.09,-36.641 -7.089,-35.749 -22.046,-71.935 -48.649,-97.665 -25.56,-24.721 -60.976,-38.094 -95.573,-43.773 -18.662,-3.063 -37.897,-4.502 -56.58,-0.939 -20.021,3.818 -38.872,12.345 -56.064,23.119 -14.405,9.027 -28.179,19.198 -40.436,30.988 29.408,-46.701 81.42,-77.801 140.567,-77.801 91.532,0 166,74.468 166,166 C 4.175,-24.286 2.743,-11.975 0,0" /></g></g></g></g></g></g><g
       id="g244"><g
         clip-path="url(#clipPath250)"
         id="g246"><g
           id="g252"><g
             id="g254" /><g
             id="g266"><g
               style="opacity:0.35000604"
               id="g264"
               clip-path="url(#clipPath258)"><g
                 id="g262"
                 transform="translate(190.3618,409.5874)"><path
                   id="path260"
                   style="fill:#ffffff;fill-opacity:1;fill-rule:nonzero;stroke:none"
                   d="m 0,0 c 3.656,13.989 9.021,29.356 19.92,39.447 12.188,11.285 30.657,13.912 46.292,17.031 22.29,4.446 44.723,7.59 67.15,11.228 4.504,0.731 9,1.525 13.494,2.322 -1.617,0.146 -3.252,0.23 -4.906,0.23 H 51.963 C 21.72,70.258 -2.885,45.652 -2.885,15.409 V -12.714 C -2.043,-8.454 -1.101,-4.212 0,0" /></g></g></g></g><g
           id="g268"><g
             id="g270" /><g
             id="g282"><g
               style="opacity:0.35000604"
               id="g280"
               clip-path="url(#clipPath274)"><g
                 id="g278"
                 transform="translate(164.5209,206.9422)"><path
                   id="path276"
                   style="fill:#ffffff;fill-opacity:1;fill-rule:nonzero;stroke:none"
                   d="m 0,0 c 3.706,22.326 11.149,44.024 22.615,63.573 10.629,18.125 24.694,34.684 39.451,49.56 19.508,19.665 41.497,36.501 64.681,51.551 -18.473,-3.44 -36.297,-9.995 -52.621,-19.459 -0.67,-0.389 -1.335,-0.786 -2,-1.184 -13.697,-8.199 -26.146,-18.323 -37,-30.09 -0.674,-0.73 -1.339,-1.468 -2,-2.21 -27.084,-30.432 -42,-69.58 -42,-110.232 0,-15.055 2.023,-29.644 5.799,-43.519 C -3.206,-27.956 -2.308,-13.906 0,0" /></g></g></g></g><g
           id="g284"><g
             id="g286" /><g
             id="g298"><g
               style="opacity:0.14999402"
               id="g296"
               clip-path="url(#clipPath290)"><g
                 id="g294"
                 transform="translate(420.1467,315.934)"><path
                   id="path292"
                   style="fill:#414042;fill-opacity:1;fill-rule:nonzero;stroke:none"
                   d="m 0,0 c -0.473,1.3 -1.359,2.317 -2.297,3.299 -2.861,-4.358 -7.377,-6.876 -13.164,-7.992 -7.748,-1.494 -18.344,-0.202 -23.742,6.244 -3.998,4.774 -3.575,11.545 -3.435,17.515 -9.963,-2.923 -16.687,-8.448 -16.687,-14.787 0,-9.39 14.742,-17.002 32.928,-17.002 10.815,0 20.411,2.692 26.414,6.849 C 0.575,-3.956 0.688,-1.892 0,0" /></g></g></g></g></g></g><g
       id="g300"><g
         clip-path="url(#clipPath306)"
         id="g302"><g
           transform="translate(305,48.2002)"
           id="g308"><path
             id="path310"
             style="fill:#000000;fill-opacity:1;fill-rule:nonzero;stroke:none"
             d="m 0,0 c -91.422,0 -165.8,74.377 -165.8,165.8 0,40.603 14.898,79.703 41.949,110.099 0.66,0.742 1.325,1.478 1.998,2.207 10.841,11.754 23.275,21.866 36.956,30.055 0.664,0.397 1.328,0.794 1.997,1.182 25.115,14.56 53.781,22.257 82.9,22.257 25.132,0 49.288,-5.508 71.8,-16.369 v -32.929 -0.277 -11.016 -0.086 -0.277 c 0,-0.037 0.011,-0.073 0.03,-0.105 l 0.163,-0.271 c 0,-10e-4 0.001,-10e-4 0.001,-10e-4 0.495,-0.763 1.118,-1.528 1.851,-2.277 0.006,-0.01 0.004,-0.023 0.012,-0.032 0.079,-0.079 0.372,-0.354 0.372,-0.354 l 0.309,-0.294 c 0.23,-0.208 0.468,-0.409 0.711,-0.608 l 0.226,-0.188 c 0.323,-0.256 0.66,-0.505 1.006,-0.745 0.001,-0.001 0.001,-0.001 0.002,-0.001 l 0.253,-0.166 c 0,0 10e-4,0 10e-4,0 v 0 c 0.269,-0.181 0.541,-0.357 0.823,-0.527 0,0 0,0 0,0 0,-10e-4 0,-10e-4 0.001,-10e-4 l 0.401,-0.232 c 0.244,-0.141 0.491,-0.28 0.743,-0.412 0.15,-0.079 0.303,-0.157 0.455,-0.233 0.25,-0.125 0.504,-0.246 0.761,-0.364 0,0 10e-4,0 0.002,0 0,0 0,0 0,-10e-4 l 0.469,-0.21 c 0,-0.001 0.001,-0.001 0.002,-0.001 0.274,-0.119 0.554,-0.232 0.835,-0.342 l 0.437,-0.172 c 0.001,0 0.001,0 0.002,0 0.361,-0.135 0.731,-0.261 1.19,-0.411 l 0.126,-0.043 c 0.448,-0.141 0.903,-0.27 1.364,-0.39 l 0.405,-0.098 c 0.33,-0.082 0.662,-0.161 1,-0.232 l 0.529,-0.103 c 0.305,-0.058 0.611,-0.114 0.919,-0.163 0.1,-0.016 0.255,-0.039 0.383,-0.058 0.062,-0.009 0.123,-0.019 0.186,-0.028 0.267,-0.038 0.548,-0.073 0.885,-0.111 0.015,-0.002 0.03,-0.004 0.045,-0.006 0.003,0 0.005,0 0.007,-0.001 0.033,-0.003 0.058,-0.007 0.092,-0.01 l 0.465,-0.049 c 0.338,-0.032 0.678,-0.056 1.021,-0.077 0.001,0 0.002,0 0.003,-0.001 0.002,0 0.14,-0.008 0.272,-0.017 l 0.213,-0.013 c 0.001,0 0.003,0 0.004,0 0,0 0.006,-10e-4 0.006,-10e-4 0,0 0.001,10e-4 0.001,10e-4 0.502,-0.024 1.008,-0.039 1.516,-0.039 0.536,0 1.069,0.016 1.597,0.042 0,0 0,-10e-4 0,-10e-4 10e-4,0 0.006,10e-4 0.007,10e-4 0.001,0 0.002,0 0.003,0 l 0.511,0.033 c 0.36,0.023 0.72,0.049 1.075,0.083 0.067,0.007 0.134,0.015 0.2,0.022 0.129,0.014 0.284,0.031 0.385,0.042 0,0 0,0.001 0,0.001 0.33,0.038 0.658,0.08 0.983,0.127 0.056,0.009 0.113,0.018 0.17,0.027 0.134,0.02 0.302,0.046 0.41,0.063 0,0 0,0 0,0 0.333,0.056 0.66,0.117 0.987,0.182 l 0.518,0.104 c 0.39,0.086 0.776,0.18 1.159,0.28 l 0.297,0.074 c 0.476,0.13 0.946,0.271 1.407,0.423 l 0.354,0.125 c 0.338,0.117 0.674,0.237 1.002,0.365 0,0 0,0 0,0 0.001,0 0.001,0 0.001,0 l 0.469,0.192 c 0.284,0.118 0.565,0.239 0.841,0.365 0.159,0.073 0.317,0.148 0.473,0.223 v 0 c 0.001,0 0.001,0 0.001,0 0.085,0.041 0.178,0.092 0.263,0.135 0.179,0.089 0.359,0.178 0.534,0.271 10e-4,0.001 10e-4,0.002 0.002,0.002 0.014,0.008 0.025,0.013 0.039,0.02 l 0.023,0.013 c 0.001,0 0.001,0 0.002,0 0.123,0.066 0.246,0.131 0.366,0.198 0.286,0.161 0.564,0.328 0.837,0.497 l 0.319,0.195 c 0.001,10e-4 0,10e-4 0.001,10e-4 0.373,0.241 0.736,0.491 1.084,0.75 0,0 0,0 10e-4,0.001 l 0.146,0.114 c 0.294,0.225 0.581,0.454 0.856,0.69 0,0.001 0,0.001 0,0.001 l 0.314,0.282 c 0,0 0,0 0,0 l 0.001,10e-4 c 0.209,0.189 0.416,0.38 0.614,0.578 0,0 0,10e-4 0,0.002 0.111,0.109 0.217,0.221 0.324,0.333 0.882,0.929 1.613,1.913 2.171,2.922 h -10e-4 c 0.003,0.005 0.007,0.008 0.01,0.013 0.001,0.003 0.001,0.005 0.003,0.008 0.025,0.046 0.047,0.093 0.068,0.139 l 0.073,0.199 v 0.225 5.467 4.237 5.486 C 146.632,255.517 165.8,211.441 165.8,165.8 165.8,74.377 91.423,0 0,0 M 71.8,339.787 V 317.881 C 49.242,328.574 25.087,334 0,334 c -29.022,0 -57.644,-7.554 -82.8,-21.841 v 27.628 c 0,35.179 28.621,63.8 63.8,63.8 H 8 c 35.18,0 63.8,-28.621 63.8,-63.8 M -121.8,375.8 c 0,35.179 28.621,63.8 63.8,63.8 H 47 c 35.18,0 63.8,-28.621 63.8,-63.8 v -84.008 -2.673 -7.793 -0.284 -0.252 -8.827 c -0.07,-0.117 -0.142,-0.232 -0.217,-0.348 0,-0.001 -0.009,-0.014 -0.009,-0.014 0,0 0,0 0,-10e-4 l -0.062,-0.097 c -0.07,-0.108 -0.138,-0.217 -0.213,-0.323 -0.094,-0.132 -0.196,-0.262 -0.298,-0.39 l -0.07,-0.09 c -10e-4,0 0,-10e-4 -10e-4,-10e-4 l -0.096,-0.122 c -0.073,-0.094 -0.146,-0.187 -0.225,-0.279 0,0 0,-10e-4 0,-10e-4 -0.106,-0.124 -0.221,-0.244 -0.335,-0.364 -0.024,-0.026 -0.044,-0.046 -0.071,-0.075 -0.005,-0.006 -0.015,-0.016 -0.015,-0.016 -0.001,0 0,-10e-4 -0.001,-10e-4 l -0.093,-0.1 c -0.082,-0.088 -0.164,-0.175 -0.251,-0.261 -0.007,-0.007 -0.013,-0.015 -0.021,-0.022 -0.12,-0.118 -0.247,-0.232 -0.375,-0.346 -0.033,-0.03 -0.059,-0.053 -0.096,-0.087 l -0.119,-0.107 c -0.093,-0.085 -0.187,-0.171 -0.286,-0.253 0,-0.001 0,-0.001 0,-0.001 -0.138,-0.115 -0.283,-0.225 -0.427,-0.336 l -0.096,-0.073 -0.138,-0.107 c -0.099,-0.077 -0.198,-0.155 -0.302,-0.229 -0.149,-0.107 -0.304,-0.209 -0.46,-0.311 l -0.111,-0.073 -0.085,-0.058 -0.066,-0.043 c -0.106,-0.072 -0.211,-0.142 -0.322,-0.21 -0.019,-0.012 -0.039,-0.023 -0.058,-0.035 -0.137,-0.082 -0.277,-0.163 -0.418,-0.243 l -0.137,-0.078 -0.155,-0.089 c -0.115,-0.067 -0.231,-0.133 -0.351,-0.197 -0.167,-0.089 -0.341,-0.173 -0.513,-0.257 l -0.142,-0.069 -0.184,-0.091 c -0.115,-0.057 -0.229,-0.115 -0.348,-0.168 -0.18,-0.082 -0.364,-0.159 -0.55,-0.235 l -0.147,-0.061 c 0,0 0,0 0,0 0,0 -0.435,-0.184 -0.555,-0.231 -0.184,-0.071 -0.372,-0.136 -0.562,-0.201 l -0.039,-0.014 -0.134,-0.047 c 0,0 0,0 0,0 l -0.178,-0.064 c -0.131,-0.047 -0.263,-0.095 -0.398,-0.138 -0.195,-0.064 -0.395,-0.121 -0.595,-0.178 l -0.171,-0.049 c -0.001,0 -0.001,0 -0.001,0 0,0 0,0 0,0 0,0 -0.459,-0.137 -0.597,-0.174 0,0 0,0 0,0 -0.202,-0.053 -0.408,-0.1 -0.613,-0.147 l -0.188,-0.043 c 0,0 -0.474,-0.115 -0.608,-0.143 -0.223,-0.047 -0.448,-0.086 -0.675,-0.125 l -0.166,-0.029 c 0,0 -0.001,0 -0.002,0 0,0 -0.479,-0.09 -0.608,-0.11 0,0 0,0 -0.001,0 -0.235,-0.036 -0.474,-0.065 -0.713,-0.094 l -0.186,-0.022 c -0.001,-10e-4 -0.002,-0.002 -0.003,-0.002 -0.054,-0.007 -0.261,-0.034 -0.426,-0.055 -0.011,-10e-4 -0.019,-0.002 -0.028,-0.004 -0.054,-0.006 -0.104,-0.012 -0.131,-0.015 -0.295,-0.03 -0.594,-0.05 -0.893,-0.07 l -0.135,-0.009 c 0,0 -0.001,-0.001 -0.001,-0.001 -0.033,-0.002 -0.225,-0.018 -0.367,-0.029 -0.051,-0.003 -0.099,-0.007 -0.119,-0.008 -0.511,-0.026 -1.027,-0.039 -1.543,-0.039 -0.497,0 -0.989,0.011 -1.48,0.035 0,0 -0.447,0.033 -0.489,0.035 0,0 -0.001,10e-4 -0.001,10e-4 l -0.133,0.009 h -0.009 c -0.276,0.017 -0.551,0.035 -0.823,0.061 -0.026,0.003 -0.075,0.008 -0.126,0.014 -0.013,0.002 -0.024,0.003 -0.038,0.005 -0.166,0.019 -0.37,0.045 -0.422,0.051 -10e-4,0 -10e-4,0.001 -0.003,0.002 l -0.196,0.022 c -0.005,0.001 -0.015,0.002 -0.015,0.002 -0.21,0.024 -0.419,0.048 -0.627,0.078 -0.025,0.004 -0.072,0.012 -0.119,0.019 -0.135,0.022 -0.336,0.057 -0.487,0.083 -10e-4,0 -0.002,10e-4 -0.003,0.002 l -0.168,0.027 c -0.01,0.002 -0.02,0.004 -0.02,0.004 -0.1,0.016 -0.2,0.035 -0.299,0.052 -0.1,0.018 -0.2,0.033 -0.298,0.053 -10e-4,0 -10e-4,0 -0.002,0 -0.137,0.027 -0.617,0.137 -0.617,0.137 l -0.186,0.04 c -0.185,0.04 -0.37,0.08 -0.551,0.126 -0.031,0.007 -0.081,0.021 -0.134,0.035 -0.017,0.005 -0.032,0.009 -0.05,0.014 -0.191,0.052 -0.434,0.12 -0.434,0.12 l -0.188,0.052 c -0.171,0.047 -0.342,0.093 -0.509,0.144 -0.145,0.044 -0.286,0.092 -0.428,0.14 l -0.179,0.061 c -0.001,0 -0.001,10e-4 -0.001,10e-4 l -0.166,0.054 c -0.165,0.055 -0.331,0.109 -0.493,0.168 -0.136,0.05 -0.269,0.104 -0.403,0.157 l -0.186,0.075 -0.172,0.067 c -0.153,0.06 -0.306,0.119 -0.454,0.183 -0.032,0.014 -0.091,0.04 -0.16,0.072 -0.175,0.08 -0.404,0.187 -0.404,0.187 l -0.137,0.063 c -0.154,0.07 -0.308,0.141 -0.458,0.216 -0.131,0.066 -0.536,0.284 -0.536,0.284 0,0 -0.14,0.076 -0.286,0.154 -0.052,0.028 -0.102,0.056 -0.149,0.081 -0.05,0.028 -0.098,0.054 -0.127,0.071 -0.118,0.068 -0.232,0.14 -0.345,0.211 -0.086,0.053 -0.157,0.098 -0.157,0.098 l -0.102,0.063 c -0.145,0.088 -0.289,0.178 -0.428,0.271 -0.101,0.067 -0.198,0.137 -0.296,0.207 -0.048,0.034 -0.087,0.063 -0.128,0.092 l -0.043,0.031 -0.094,0.068 c -0.136,0.096 -0.272,0.192 -0.402,0.293 -0.116,0.089 -0.226,0.182 -0.336,0.274 l -0.095,0.079 c 0,0 -0.001,0 -0.001,0 l -0.072,0.061 c -0.129,0.106 -0.259,0.212 -0.381,0.323 -0.105,0.094 -0.203,0.189 -0.302,0.285 l -0.156,0.151 c -0.118,0.114 -0.236,0.228 -0.349,0.345 -0.098,0.104 -0.191,0.209 -0.283,0.315 -0.025,0.029 -0.044,0.05 -0.073,0.084 0,0 0,0 0,0 l -0.047,0.053 c -0.108,0.123 -0.217,0.246 -0.318,0.373 -0.059,0.071 -0.116,0.147 -0.177,0.229 -0.043,0.059 -0.087,0.119 -0.139,0.191 -0.072,0.096 -0.141,0.193 -0.21,0.292 v 10.4 c 0,0.003 -0.002,0.005 -0.002,0.008 0,0.003 0.002,0.006 0.002,0.009 v 0.263 c 0.017,0.022 0.032,0.045 0.049,0.067 -0.016,-0.021 -0.032,-0.043 -0.049,-0.064 v 0.036 2.805 c 0,0.003 -0.002,0.006 -0.003,0.009 10e-4,0.003 0.003,0.005 0.003,0.008 v 29.515 2.234 23.191 c 0,36.503 -29.697,66.2 -66.2,66.2 h -27 c -36.503,0 -66.2,-29.697 -66.2,-66.2 v -29.019 c -13.485,-7.956 -25.793,-17.748 -36.6,-29.102 z m 235,-85.701 V 375.8 C 113.2,412.303 83.503,442 47,442 H -58 c -36.503,0 -66.2,-29.697 -66.2,-66.2 v -96.696 c -28.374,-31.075 -44,-71.311 -44,-113.304 0,-92.746 75.454,-168.2 168.2,-168.2 92.746,0 168.2,75.454 168.2,168.2 0,47.138 -20.046,92.438 -55,124.299" /></g></g></g></g></svg>