<?xml version="1.0" encoding="utf-8"?>
<!-- Generator: Adobe Illustrator 13.0.0, SVG Export Plug-In . SVG Version: 6.00 Build 14948)  -->
<!DOCTYPE svg PUBLIC "-//W3C//DTD SVG 1.1//EN" "http://www.w3.org/Graphics/SVG/1.1/DTD/svg11.dtd">
<svg version="1.1"
	 id="图层_1" xmlns:dc="http://purl.org/dc/elements/1.1/" xmlns:cc="http://creativecommons.org/ns#" xmlns:rdf="http://www.w3.org/1999/02/22-rdf-syntax-ns#" xmlns:svg="http://www.w3.org/2000/svg"
	 xmlns="http://www.w3.org/2000/svg" xmlns:xlink="http://www.w3.org/1999/xlink" x="0px" y="0px" width="380px" height="290px"
	 viewBox="0 0 380 290" enable-background="new 0 0 380 290" xml:space="preserve">
<metadata><?xpacket begin="﻿" id="W5M0MpCehiHzreSzNTczkc9d"?>
<x:xmpmeta xmlns:x="adobe:ns:meta/" x:xmptk="Adobe XMP Core 4.1-c036 46.277092, Fri Feb 23 2007 14:16:18        ">
   <rdf:RDF xmlns:rdf="http://www.w3.org/1999/02/22-rdf-syntax-ns#">
      <rdf:Description rdf:about=""
            xmlns:xap="http://ns.adobe.com/xap/1.0/"
            xmlns:xapGImg="http://ns.adobe.com/xap/1.0/g/img/">
         <xap:Thumbnails>
            <rdf:Alt>
               <rdf:li rdf:parseType="Resource">
                  <xapGImg:width>256</xapGImg:width>
                  <xapGImg:height>196</xapGImg:height>
                  <xapGImg:format>JPEG</xapGImg:format>
                  <xapGImg:image>/9j/4AAQSkZJRgABAgEASABIAAD/7QAsUGhvdG9zaG9wIDMuMAA4QklNA+0AAAAAABAASAAAAAEA&#xA;AQBIAAAAAQAB/+4ADkFkb2JlAGTAAAAAAf/bAIQABgQEBAUEBgUFBgkGBQYJCwgGBggLDAoKCwoK&#xA;DBAMDAwMDAwQDA4PEA8ODBMTFBQTExwbGxscHx8fHx8fHx8fHwEHBwcNDA0YEBAYGhURFRofHx8f&#xA;Hx8fHx8fHx8fHx8fHx8fHx8fHx8fHx8fHx8fHx8fHx8fHx8fHx8fHx8fHx8f/8AAEQgAxAEAAwER&#xA;AAIRAQMRAf/EAaIAAAAHAQEBAQEAAAAAAAAAAAQFAwIGAQAHCAkKCwEAAgIDAQEBAQEAAAAAAAAA&#xA;AQACAwQFBgcICQoLEAACAQMDAgQCBgcDBAIGAnMBAgMRBAAFIRIxQVEGE2EicYEUMpGhBxWxQiPB&#xA;UtHhMxZi8CRygvElQzRTkqKyY3PCNUQnk6OzNhdUZHTD0uIIJoMJChgZhJRFRqS0VtNVKBry4/PE&#xA;1OT0ZXWFlaW1xdXl9WZ2hpamtsbW5vY3R1dnd4eXp7fH1+f3OEhYaHiImKi4yNjo+Ck5SVlpeYmZ&#xA;qbnJ2en5KjpKWmp6ipqqusra6voRAAICAQIDBQUEBQYECAMDbQEAAhEDBCESMUEFURNhIgZxgZEy&#xA;obHwFMHR4SNCFVJicvEzJDRDghaSUyWiY7LCB3PSNeJEgxdUkwgJChgZJjZFGidkdFU38qOzwygp&#xA;0+PzhJSktMTU5PRldYWVpbXF1eX1RlZmdoaWprbG1ub2R1dnd4eXp7fH1+f3OEhYaHiImKi4yNjo&#xA;+DlJWWl5iZmpucnZ6fkqOkpaanqKmqq6ytrq+v/aAAwDAQACEQMRAD8A9U4q7FXYq7FXYq7FXYq7&#xA;FXYq7FXYq7FXYq7FXYq7FXYq4kAEk0A3JPSmAmlYtLrlzr+pSaTo0jRWVvT9JaonVQdxFCf53H7X&#xA;7I+L+XlpY6yWrmYYTWKP1T7/ACj/AMV8mN3syKtlp9n8TR2tpbr9piERFHiTQDNx6cce6IZOsb6z&#xA;v7SO7spluLWYVinjPJHFaVVhsRtsRhjISFjkoKvkldirsVdirsVdirsVdirsVdirsVYr5g/M/wAk&#xA;6DfNYahqIF4n95DEjylK70corBT7E1y/HppzFgbNsMMpCwEs/wCV4/lz/wAt8v8A0jzf805Z+Syd&#xA;zL8tPud/yvH8uf8Alvl/6R5v+acfyWTuX8tPud/yvH8uf+W+X/pHm/5px/JZO5fy0+53/K8fy5/5&#xA;b5f+keb/AJpx/JZO5fy0+53/ACvH8uf+W+X/AKR5v+acfyWTuX8tPud/yvH8uf8Alvl/6R5v+acf&#xA;yWTuX8tPud/yvH8uf+W+X/pHm/5px/JZO5fy0+53/K8fy5/5b5f+keb/AJpx/JZO5fy0+53/ACvH&#xA;8uf+W+X/AKR5v+acfyWTuX8tPud/yvH8uf8Alvl/6R5v+acfyWTuX8tPuR2jfmz5D1e+jsbTUgtz&#xA;KQsSzRyRB2OwUM6hansK79shPSZIiyESwTAumX5jtLsVdirsVS99T5a5HpsR/u4GubpqVoCwSND4&#xA;cqs3+xzF/MXm8MdI2f0D7yi92FebfM99q+ow+XNBas10xT1P2Sq/3kr0/wB1Rj/gjQdxnL63Wz1+&#xA;b8vhP7ofUf537Pv+TGR6Bj2v/m75b8maYND8rBNTuoATcajI1YPVbd5Hdaeq5O54kKOgO1M2n5vH&#xA;p4DFhF11/HNrllEdgo+QvJvmbz1NB5q89XM02k8hNpmkS/Ak4p8MrwiipD/KtKydW+H7d2m0ksh4&#xA;8pvuCwiZbye2AAAACgGwAzcN7sVdirsVdirsVdirsVdirsVdirsVfFU881xPJPM5kmmZpJZG6szG&#xA;rE/M50wFO6AU8KuxV2KuxV2KuxV2KuxV2KuxVwJBqNiOhxV9k+Xbia58v6ZcTsXmmtIJJXPVmaNS&#xA;xPzJzm8gqRHm6eY3KYZBi7FVk80cEMk0h4xxKXdvAKKnIZMghEylyiLKvH183/6Hr+rPJ6bahcNG&#xA;79ltLRSoVT35SPIvyHvnn2o7Smccox/vc8rPlHoPlt7h5tYlzLxrVfPt1eLfRWkpt7a4HDVLtSQz&#xA;wj7FmjdfSFeUtPttt9kb7HSYfy+IQj9Uvx+P2ONKds2/JX8p38yyw+afMMBTQIXD6Xpsg2u2Q7TT&#xA;Kf8AdKkfCv7R6/D9rc6HQgeqTZix3uX0lm6cl2KuxV2KuxV2KuxV2KuxV2KuxV2KuxV8TZ07unYq&#xA;7FXYq7FXYq7FXYq7FXYq7FXYq+xfKn/KL6P/AMwNt/yZXOcy/Wfe6ef1FNMrYuxVi35kas9h5bkS&#xA;Le4umEUS9Kk9B9LUB+ec/wC0eo4NPwfzzXwG5/Hmxkdnzb+Z+sLo2gW3l+0eskigzPXc1JNT82qx&#xA;+jOY7HweNlOWXIcnHyGhTvyV/KtvO2opPfKy+UtJcfWTuv1y5+0YlYU+EVq5G4FB1NR1ul03HIyP&#xA;48kY4WX1zDDFDEkMKLHDGoSONAFVVUUCqBsABm5Apy12FXYq7FXYq7FXYq7FXYq7FXYq7FXYq7FX&#xA;xNnTu6dirsVdirsVdirsVdirsVdirsVdir7F8qf8ovo//MDbf8mVznMv1n3unn9RTTK2Lzf/AJX1&#xA;5LtfzE1DyLrfq6JqNq8aWl1e8Utrn1I1deMgJCV5fDzpX5/Diqj+ZWpQy69DbtIPQ0u2+szb9Hm5&#xA;AfdHGT9IzhPavKZZYwHd95/6RYSO75ys9A1j8y/zHGl2dVV2L3VxQstvbqRzdqfyiiDxag75tezN&#xA;LwYxEc3GAMi+yfLnl7SvLuiWmi6VF6NjZII4l6k92ZjtVmYlmPjnRwgIig5YFCkyyaXYq7FXYq7F&#xA;XYq7FXYq7FXYq7FXYq7FXYq+KJI3jkaORSkiEq6MKEEGhBGdM7pbhV2KuxV2KuxV2KuxV2KuxV2K&#xA;uxV9j+WY5IvLekxSKUkSzt1dTsQREoIOc3lPqPvdPP6imWQYvBvz/sNF0Lz55M866lZQXmkX0reX&#xA;fMcFzGssMltcVkhZlYEViIkk8fhHhkMgsbJCJ85fk3pVtd29t5f1G60/9JJJBDYzzSXFqpt4/UjR&#xA;eRMqpxDDjzKr+yBSh0Wr00Mh45D1d7GWESYP+V35gW/5Ya5B5S1ny3Lca95lvI411mzuo5o5xLL6&#xA;MIjRljZY1Z++5JJ8Bm7xabwh71GLgfVGWpdirsVdirsVdirsVdirsVaZlVSzEBQKknYADFUqn83+&#xA;Urd/TuNbsIXHVJLqFT9xYZYMMz0PyZjHLuKl/jnyV/1MGm/9JkH/ADXh8Cf80/JfCl3FNrW7tbu3&#xA;S4tJo7i3kFY5omDow8Qykg5WQRsWJFKuBDsVYR5h/J3yTrmoyahPDLbXUxLTtbScFkc9WZWDip70&#xA;pmVj1k4im+GolEUlf/Qv3kT/AH5ff8jk/wCqeT/P5PJl+am7/oX7yJ/vy+/5HJ/1Tx/P5PJfzU3n&#xA;/wCa/wCU9h5UsLfVdKuJpbOWYQTQ3BVnRmVmVlZVT4fhI3GZml1RyGjzcjBnMzReY5nOS7FXYq7F&#xA;Wcflb+XK+ctQuvrNw9tp1iqGd4gPUd5CeCIWqBspJND8t8xdVqPDArmWjPm4B5vVl/5x98ihQDLf&#xA;MQN2M0dT90YzX/n8nk4v5qfk7/oX7yJ/vy+/5HJ/1Tx/P5PJfzU0do/5JeRdLv4r5YZ7qSFg8cdz&#xA;IHjDA1BKqqcqe+2RnrckhTGWpkRTPcxGh2Kvnr/nNLVbVfIWi6IKSajqOqJNbw0qxjt4ZFdlHWvO&#xA;dF+nFXqHmQyRat5U+suPVEs6yP2Lm0ZfxbNPm+ktsXyV591VrHU/y68+xRmS2tBZzOgps9tIlyIz&#xA;7n4h9GdBmHpifJOQbAvuLTdRstT0+21GxlWeyvIkntp03V45FDKw+YOY7SiMVdirsVdirsVdiqye&#xA;eC3heeeRYoYlLSSuQqqo3JJOwGEC1AeN+dvz+jhkksvK0SzMp4tqU4PD39KPYn/Wb7j1zY4dBe8/&#xA;k5mPS9ZPIda80+YtbkL6rqM93U14O59Mf6sYoi/QM2MMUY8g5kYCPIJXljJ2KvYvyG8xfozS/Msl&#xA;7M36MsIo7wx9eLUcPwHi4UD32zW67HxGNcy4eqhZFc0TqXmXzZe6vp8etfpO3fWoxPoul6NdRWgW&#xA;Ntws0jfG0lOvKg/UBHHAA8NenmSLQIRANVtztH+WfPF/YQpqaXt3qHluO6Wx1e21Ti97YSyHikon&#xA;X+9i5EA8txkMuAHagJVYrkWM8YO3Xy6vX81ziOxV2KvNP+cgf+UEj/5jof8AiEmZug/vPg5Ol+t8&#xA;45unYuxV2KuxV7n/AM43f7xa7/xkt/8AiMmartHnFwdZzD2bNa4bsVdirsVeWfm5/wA5DeTPy9jk&#xA;suY1bzJT93pNu4/dkioNzJuIh7bsfCm+KvMvyn8jec/zR85W/wCan5ijhp1sVfQNKKskb8DyiZI2&#xA;J4wI3xCu8jbmo64+bLWwZAPSvPmtNP5x0CGIhIrHUmtXYkkM7R2sjnbbZbgKPeuYWQekshzeOXvl&#xA;e1mPmT8t9YHBrG5kutIkpVvqVy5mtpoyftemzmNqf6ubvQ5BlxAFtiLHCUL+U35za/8AlFeDyb54&#xA;t5bjyuXZrC/iBkNvzNS0X+/ISTyZB8Skk+2QnAxNFolEjm+sPLnmfy/5l0uPVdBv4dR0+X7M8DBg&#xA;D1KsOqsK7qwBGQYpnirsVdirsVWyyxxRPLKwSKNSzuxoqqoqSSewxAV81fmp+aF15nvX07T5Gi0C&#xA;BqIoqpuGU/3kn+TX7K/Sd+m70umEBZ+p2WDDwizzee5mOQ7FXYq7FXon5YaTdat5Y86WFoC1zLZw&#xA;GFB1Zo3eQIPduNMw9TMRnAnvcfNKpRKe+db+Xzdrfli+0M3duq2vCe9tYZj9UnckcS0a7FG2ah2G&#xA;U4Y+HGQlXP5teMcAIKnp949p5Hu/y+n0mSz80390tvHWNuFyGmBa4Mh2IjVSCa0pQjatDIXkGS7i&#xA;B8kkXLjv0vfM1LgOxV2KvNP+cgf+UEj/AOY6H/iEmZug/vPg5Ol+t845unYuxV2KuxV7n/zjd/vF&#xA;rv8Axkt/+IyZqu0ecXB1nMPZs1rhuxVD6jqVhplhPqGoXEdpY2qGW4uZmCRoi7lmY7AYq+XfP3/O&#xA;RfnHz7rn+CvyhtZ+NwTG+rqpS4lSoDPHyoLaIV3kejf6mCUgBZVln5Vf84seXvL8sWt+cZF8weYS&#xA;fVML1ezhkJqTxfed6/tSCn+TXfMTJnJ5MgHtmqalY6Tpd3qV9IILGxhe4uZT0SKJSzH6AMoAtk8S&#xA;12LUY/KHl/VbyIjVb621vX5YWALrNPEb6KE17xKUiHhxGHJ3eYChFfnd5WuNQ0az88eXl9XXPLyG&#xA;4VU/4+9PYcp4DT7Xw/Gn003OU6DUnFOuhZnbcMPWTQvNOgxSywx3mm30YkVJADSo/wCFZTttuDnX&#xA;bTHk37SDz+byr52/LzVW8x/l1qM6RrvcaeDzYoN+DxmqTx+zDkO1TvmHl0xG8XHnirk97/Jf/nJf&#xA;y/56eLRNcRNG81GipASRbXTdP9HZjVXr/upjXwLb0xWl7VirsVdiryX8/fOL2GlQ+XLSTjc6iPVv&#xA;CpoRbKaBf+ejj7gR3zYaDDZ4j0cvS47PF3PAM27nuxV2KuxV2KvZv+cbv97dd/4xW/8AxKTNb2jy&#xA;i4es5B6bf/l9odzqMmpWkt3pN9OeVzNps7W/rHxkUVRjv1pmDHUSAo0R5uMMpArmr6B5I0LRbuS/&#xA;gWW61OYcZdRvJWuLhl8ObnYfKmDJnlIV07giWQy26J/lLW7FXYq80/5yB/5QSP8A5jof+ISZm6D+&#xA;8+Dk6X63zjm6di7FXYq7FXuf/ON3+8Wu/wDGS3/4jJmq7R5xcHWcw9mzWuGoX19Z2FlPfXsyW1na&#xA;xtNcXEhCokaDkzMT0AAxV8f+bvM/nj/nIjzsfLPlYNZeStNk5vPIGWLiCQLq5oAWd9/Si7f8EwhO&#xA;YiN0gPo/8tPyr8qfl7ow0/RIOVzKFN9qUoBuLhwOrt2UfsoNh86nMGczI7sgE98y+aPL/lnSZtX1&#xA;6+i0/T4PtzSmlSeiqoqzseyqCTgESeSXn5XzL+ajwLdWEuhflyssc8sF4CmoawsZ5xo0QP8Ao9qz&#xA;AFuXxuKdAcntH3oT3ztFBJ5s8qwzKpgkGoxujfZKvbqvH6a0zHy/QWQ5pP8AlpqF3bwX3kzVW56p&#xA;5XZLZJW/4+dPkBNlce5MS8H/AMtTmNmHKQ5S+/qyHc8ei03/AAl5/wDMXk9Bw08ONW0VOgW1uj8c&#xA;aj+WKX4RnS9mZ+PHvzZ4z0Tr1s2ba8//ADA/Lm31blq+jAWutxfvKR/AJ2XcbinGSvRvv8RjZsAl&#xA;uObVkx3uHr//ADjR+e1z5phPkzzVK3+KdPRvq11MaSXkUVeSyV39eID4u7DfqGOYDivfsVdir5O/&#xA;M7Wn1fz1q9yTWOKdraDw9O3/AHQI/wBbjy+nOg00OHGA7XDGohi+XtrsVdirsVdir2b/AJxu/wB7&#xA;dd/4xW//ABKTNb2jyi4es5B7nmqcF2KuxV2KuxV5p/zkD/ygkf8AzHQ/8QkzN0H958HJ0v1vnHN0&#xA;7F2KuxV2Kvc/+cbv94td/wCMlv8A8RkzVdo84uDrOYezZrXDfNX/ADlR521jV9X0j8pfLJ53+rvE&#xA;+qKpIr6jj6vAxHRdvVk9gp6VwE0LV7J+Wf5eaL5B8p2ugaYoZkAkvrulHuLlgBJK3zpRR2WgzXzm&#xA;ZG2YCh+YP5i2/lcWum2Fm+tebNV5Lo2hW5AklIBrLKx2ihSnxOf60YQv3KlHlj8q7q71WHzX+Yl0&#xA;mv8AmhPis7QD/cZptTXhaQHZmG1ZX+I0HfcylPoOS09IypLxb8x/MDP5ksNXRqWOmX0tpA2/FzZG&#xA;Frh+3SZ3hb/jHhnH00oTD8yw3l/UtI/MC2Wi6TILHXwvWTSbtwrsabt9WmKyqP8AWzDw+oGHfy97&#xA;M97Bvz/gjsPPnkrzDGRxvludKuXHQqeMluK/68rHNl2PkqRCQakEt9bOlb3etirzT8xbG+0DW9P8&#xA;86C5tb+0njeWRO0qGschHcNTg4Ox+k5hanH/ABBx80er7W/L/wA42PnLybpXmWyHGLUYA8kVa+nM&#xA;pKTR/wCwkVlzEaGQYq+Kp5nnnkmfd5WZ2PXdjU9c6YCndBTwq7FXYqidN02/1O+hsLCBri8uG4Qw&#xA;p1J/UAOpJ2GRlIRFnkgkAWXrWkf845alLCsmravHaykVMFvEZqV7F2aMVHsDmvn2iOgcSWrHQPRv&#xA;y9/LbT/Jkd2YLqS8ub3gJZXUIoWPlxCqCf5t98w9RqTkraqcfLmM2YZjNLsVdirsVdirzT/nIH/l&#xA;BI/+Y6H/AIhJmboP7z4OTpfrfOObp2LsVdirsVe5/wDON3+8Wu/8ZLf/AIjJmq7R5xcHWcw9mzWu&#xA;G+UfyBjXzx+fvnHz3c/v4bBpWsHIrwNzI0FtvT9m1idRmPqJUKTF9FeePN2n+UPKuoeYb8F4bKOs&#xA;cCfbmlchIok/ypHYLmLGNmmTHfyt8j6hpsd15r80cbjzx5hpNqcxAItYjvFYwdeMcK0Bod2HegyU&#xA;5XsOShn+VpYTq3nOfW7ify/5IkF1qNWhv9dVfUsdNFPjZpPsTXAr8EKk/F9vivWwRrcoY/548kab&#xA;9V8t+TrMtDaS2Wq2UczEtIHltaGZm6s5kb1GPdt8ryTocXmEgK3kvV/8a+Sr3SPMMAj1e2E2jeZr&#xA;LrSdU4SMteqSowkQjbfqaZh5I8Erjy5hmNw8Q/MnUr2f8hfLst23LWfKWvjSrxiTXnYLPCP9kypG&#xA;xrmw0/pzkjkRbAnZGrOGUMpqCKg+xzp3Lb9bFUDrllHqmkXenyAEXMTIK9mpVG/2LUORnGxSJCxT&#xA;Lv8AnCfzNLLofmHytO2+n3Ed7bKevG4UxyqPZWhU/Ns1TgvpjFXxNnTu6dirsVdir2P/AJxw0+3k&#xA;1LWtQdQZ7aKCGIkdFnZ2en/IkZre0ZGgHD1Z2Ae7ZqnBdirsVdirsVdirsVeaf8AOQP/ACgkf/Md&#xA;D/xCTM3Qf3nwcnS/W+cc3TsXYq7FXYq9z/5xu/3i13/jJb/8RkzVdo84uDrOYeu6m7x6bdyISrpD&#xA;IysOoIUkEZrXDfNf/OEkEa+XvNE4H72S7to2P+SkTlf+JnMTU8wyi9I88RnzL+bPlLym4Dabo0Uv&#xA;mjVIj0doX+rWK/ROzMR3p7ZXHaJPwS9OJAFTsB1OVJeTRX+pfm1qt1DY3Mth+WenStbz3Vuxjm1u&#xA;eM0ljjkUhks1+yzLvJ0r143Vwf1kPUNO03T9MsYLDTraKzsbZRHb20CCONFHZVUADKibS8+/M7XY&#xA;NK88eQRIT/pN3dwFR4TRJApPsJJUyM43AqOaE1jh5f8AzT0fU4/3dn5shk0rUuyG8tEM9lIfFmjE&#xA;0X3Zix9WMj+bv+tn1eLfnXDDYeXfzD0pvsf4k07UrYb/AN5qFlykO23+6n6/0zN0xuUT/RI+RYS6&#xA;oTSrkyaXZyVPxwRtv13QHOnjyDlDkivWySXetiq//nEqf6v+dnmeyVqQyWN5xSnVor2Hj08FLZqp&#xA;/UXClzL7DyLF8TZ07unYq7FXYq9t/wCca/8Apo/+jL/mfmr7S/h+P6HC1nR7ZmscJ2KuxV2KuxV2&#xA;KuxV5p/zkD/ygkf/ADHQ/wDEJMzdB/efBydL9b5xzdOxdirsVdir3P8A5xu/3i13/jJb/wDEZM1X&#xA;aPOLg6zmHsN1ALi1mgJ4iZGjLdacgRXNa4b5k/5wsuvQtvN+hzr6d5a3NtK8Z+1uJInH+xaPf55i&#xA;6kcmUXqV1I9h/wA5BWTzHjb655ZktbU0HxXGn3pnda/8Yrmv+e1X8HxT1RH52X+pp5Oi0PSpDBqf&#xA;mu+t9BtrkCvpLeFjPJt/Lbxyb9sGMb33KWYaDoem6Dotlo2mRCCwsIUgtoh2RBSpPcnqT3OQJs2l&#xA;S80eZNL8s+X7/XtVk9Kw0+IzTEbsabKiDarOxCqO5OGIs0rwvzxoXmfVv0PrmuKbXzLrkWqTWOnq&#xA;ajT4rbT5ZbC3H80iSH1JWpu5p0VclKQA8tvvQE6/M7XYNU/J7TvO9sAslhLpWv2qg14ss8Rda+IS&#xA;V1zDwRrIYe8MydrePf8AORF+g1bz1bq3L1NS8uIV3oCNNvJGI7dClfnmZoxtH3S+8MZofSHK6TZK&#xA;disEQI+SDOlhyDlR5Iv1vfJJd63viqa/84d20l7+aPmrWk3gSxliJHSt3dpKv4QHNVM2SXBkd319&#xA;kUPibOnd07FXYq7FXtv/ADjX/wBNH/0Zf8z81faX8Px/Q4Ws6PbM1jhOxV2KuxV2KuxV2KvNP+cg&#xA;f+UEj/5jof8AiEmZug/vPg5Ol+t845unYuxV2KuxV7n/AM43f7xa7/xkt/8AiMmartHnFwdZzD2b&#xA;Na4b5I+tL+Un/OVF212fq/l7zSWcyE0RYtQfmHPYCK7QqfBa5VmjcUh7T+dtnd2mj6X520+Iy6h5&#xA;LvV1No1+3JYsphv4lPblA3I/6uYuM713sihfzU1uwC/l15pt5Um0r/EFm31jqn1fULWaJJqnsPUU&#xA;4wHMeSl6jlSXn/5lWq6z5o8j+WpwGsLrUZtUv4zSkkelQGWNGB6qbiWIsPbLIbAlBVPPgB89+RQe&#xA;nr6l/wBQLZRl+g/jqyHN4rc3hX/nFDVrI/vZbC4l0xVWpJ46sFjVajfijrT2GSA/wgH4/Yv8Lyz8&#xA;5rv6zqerNCxdLzzDd2sYqTVNIt4LWJq9Dy9ZgNu2ZemGw/q/ewknsJEUSRg7IoUfQKZ0Acxd63vi&#xA;lK/M2rjT9FuZw1JWUxw+PN9hT5dcryz4Y2wnKg99/wCcPPJkmi/lxPrtxHwufMdx6sdRRvqttWKG&#xA;vzcyMPY5rXDe8Yq+Js6d3TsVdirsVe2/841/9NH/ANGX/M/NX2l/D8f0OFrOj2zNY4TsVdirsVdi&#xA;rsVdirzT/nIH/lBI/wDmOh/4hJmboP7z4OTpfrfOObp2LsVdirsVe5/843f7xa7/AMZLf/iMmart&#xA;HnFwdZzD2bNa4byL/nJL8om8/eTvrWmRc/Mmi859PUAcp4yP3ttXxYCqf5Qp3OKsf/5xv/OK3836&#xA;EfJfmVh/iTTITB6dx1vLVBwNQ3WSNfhkU7kfF/NTCzY6NhkClus+V7qHQfMn5JXbmlxDJqv5c3cj&#xA;H97FBILj6jzb/dkEi8etfTauwGES3Evmr0j8j/zFTzz5EtLy5emu2FLLXIGHF1uYhQuymlPVA5/O&#xA;o7HK8kOEpBQ/5hXn6L/ND8uNVnothNPqWjyymvwz6hBG1so93e244YbxKozz4QPPfkUnp6+pf9QL&#xA;Zj5foP46shzfPkV7bwfkH5bSZmkg1/zK9xcAkVNrb3U0s8m/QKttU1y2v3x8oo6PNfMiS3HmDyzp&#xA;kzc7m2so7/Ux/wAvV/LJqMnL/KEc8cZ/1aZsNJG5fH7liLIZF62bhymmuFVSzMFVRUk7AAYql3kz&#xA;ylqX5r/mBZ6BZc00S0PrajeAbR26kepJX+Z/sRjx36VzX5snEduTi5J2X3xp2n2em6fbadYxLBZW&#xA;cSQW0K/ZSONQqKPkoylrRGKvibOnd07FXYq7FXtv/ONf/TR/9GX/ADPzV9pfw/H9Dhazo9szWOE7&#xA;FXYq7FXYq7FXYq80/wCcgf8AlBI/+Y6H/iEmZug/vPg5Ol+t845unYuxV2KuxV7n/wA43f7xa7/x&#xA;kt/+IyZqu0ecXB1nMPZs1rhuxV8//nj/AM483up6r/jv8vH/AEf5ttn+s3FpCwhFzKpqJoWqFSf+&#xA;auz96GvIEWrDLL849J896RF5R/MWRvKPn/Rp1l0bzI8ZhSG/h+w8ysAYGNKSq3wN1+E8QMc4zE2N&#xA;wytU0e/80aJ5tuvOmgWHHzRGg/x/5KhYcdRtySRq2mUHGVJTV/3dSrV6hjUEAijy6FXrXmmTQvze&#xA;/Km8fynepPehUvNLcMEmttQtiJYo5VP90/JeBr2NRtvlUbhLdPN5z55/OCy1XyZ5d81Ei11jT4tX&#xA;s9TsWqsltqZsGgEbqaEcpnUr7HxricVmvd9628W86+Z4LPRPK/lUGsflzTnivI1JU/XtSPq3sRIB&#xA;B9OJvRb+V2PhluKFky7z9g5IJSny8b29vLzX9Qbnd37s3KlNmarEDsK7KOwGbXS4uEW3Yo9U3vNU&#xA;tLOP1LmURr2B6n5DqcyZTEebaZAc1Hyv5Z87fmhq40byzaMlgrD67fyVWCJD+1NIKgeyLVj75hZc&#xA;5lsOTjzyW+1/ys/K7y9+XXlpNH0lfVuJKSajqDiktzMBTk3Xiq9ET9keJqTQ1MyxV2KvibOnd07F&#xA;XYq7FXtv/ONf/TR/9GX/ADPzV9pfw/H9Dhazo9szWOE7FXYq7FXYq7FXYqxH80/Kd95n8pS6fYFf&#xA;rsUqXEEbEKHZKgpyOwqGNPfMjS5RCdnk3YJiMrL59P5XfmCCQdDuajbYKR+Bzb/msfe5/jw73f8A&#xA;Kr/zA/6sdz9w/rj+ax96+NDvd/yq/wDMD/qx3P3D+uP5rH3r40O93/Kr/wAwP+rHc/cP64/msfev&#xA;jQ73tv5M+R9X8r6PePqwEV5qEiP9WDBjGkYIXky1HI8jsDms1mcTkK5BwtRkEjs9DzDcd2KuxVhX&#xA;5ifk75B/MCADzBp4N6i8IdUtiIbuMdgJACGA7K4ZfbFXgPmD/nFD8y9Dkjm8k+ZVvrWzczWNvcSP&#xA;aXUDsRX0HXnGrECjOrR1wEBWHah5N/5yS0nVf0pL5fvo9arSXWNI4i6lUVNJXsWaOatPiaVGY9zk&#xA;eAJtjXmTRfzt1zUhreq+UNV/Si0a61BNIuYDM0f93JOqRpCzp2fgD41wiAApbSmz/Kj80ri6VpvJ&#xA;utzftUexuYw3feR46bk198nGgoZ/pH5Bfn1rRWNdHg0K1NFE15NElB/qIZpR9EeXHUS6bNhyl6d5&#xA;K/5wz0S3nS+876xLrM4oz2FpyhgJ7q8zEzOv+rwOUk21EvoPQ9A0TQdNi0zRbGHT9Ph/u7a3QRoC&#xA;epoOrHuTucCo/FXYq7FXzFq/5K+fbLUJoLWwN9aqx9C6ikjAdK7EqzKynxBGbyGtxkbmnZx1ECOa&#xA;C/5VH+Y3/Vll/wCRkP8AzXkvzePvT48O93/Ko/zG/wCrLL/yMh/5rx/N4+9fHh3u/wCVR/mN/wBW&#xA;WX/kZD/zXj+bx96+PDvew/kr5E1vyvYajPq6rDc6i0PG1DK7IkIehZlJWrer0B7ZrtbnjMjh6OJq&#xA;MokRXR6TmE4zsVdirsVdirsVdirsVdirsVdirsVdirsVdirsVdirsVdirsVdirsVdirsVdirsVdi&#xA;rsVdirsVdirsVdirsVdirsVdirsVdirsVdirsVdirsVdirsVdirsVdirsVdirsVdirsVdirsVdir&#xA;sVdirsVdirsVdirsVdirsVdirsVdirsVdirsVdirsVdirsVdirsVdirsVdirsVdirsVdirsVdirs&#xA;VdirsVdirsVdirsVdirsVdirsVdirsVdirCPzXuvOlvo1m3lNZ2vTcUn+rRiVvS4N1BVtuVMytKI&#xA;GR4+TfgEb9TxjVPzF/NrSbkWupahc2dwVDiKaGJG4moBoU6bZso6fDIWBbmRw4zyDI/KevfnTe6z&#xA;o0119el0e5ubZ55jboImtpHUs3MIPhMZrWvTKcuPAImqvdryRxAHlb2TUfN/lXTbn6rf6vaW1yPt&#xA;QyzRq4/1lJqPpzWxwzkLALhjHI8gmNpe2d7AtxZzx3Nu/wBiaF1kQ/JlJGQMSNixII5oY+YNBFw9&#xA;sdStfrEZYSQ+vHzUpUuCvKo40NfDJeHLnRTwHuSzWfM1hceUtcv9D1GC5msbK5kWa2kSX05UidkJ&#xA;oWHVaivXJwxkTAkOZDKMDxAEPCvL/nn84PMN+bDR9SlursIZTHS1j+BSATWQIv7Q75tcmDDAXIfe&#xA;508WOIshNvKv5t+edN81waR5klNxA1wLW8hmjjSSJmbhyVo1X7JNd6gjp45Xl0mOULixngiY3F7p&#xA;ca5ottc/VbjULaG62HoSTRrJVvs/CSDv2zVCEiLAcERJ6NWevaHe3k1lZ6hb3F5bVE9tFKjyJxND&#xA;yVSSKE0PvhOOQFkbKYkCyFHVPNXlrSZRDqWqWtnMRURTSoj0PfiTWmGOKUuQJWMJHkEZYalp+oW4&#xA;uLC6iu7cmgmgdZEqO3JSRkZRI2IpBBHN5d5t1D8xI/PssOmaxbW+jCW2CWklzZpIFMcfqD05D6vx&#xA;NyI/DM7FHH4e49XxcrGIcG43eqXN1a2kD3F1MkEEYrJNKwRFHiWYgDMAAnYOKBaV2XnTyjfXAt7T&#xA;WbKedjxWJJ4yzE/yitW+jLJYZjcgsjjkOic5UwSW787eT7O4Nvc61ZQzqaNG1xGGU+Db/D9OWjDM&#xA;iwCzGOR6JnDf2M9p9cguYpbMqX+so6tHxXq3MHjQUysxINdWJB5PJNT/ADmvZ/Ptpoli1vaaNFfJ&#xA;BdXxdZPWjD0Zg5+BEI8N/fNjHRgYzI/VTljTjgs86evW1zbXUCz20qTwPuksbB0YA02Zag5riCOb&#xA;iEUqYEJPfecvKdhdG1vdYs7e5U8XhknjVlP+UCfh+nLI4ZkWAWYxyPIJnbXVrdwJcWsyTwSCsc0T&#xA;B0YeIZSQcgQRsWJFIRfMXl9neNdTtDJEGaRBPGSqxglyw5bBQN/DJeHLuKeA9ypp2taPqVs11p97&#xA;Bd26EiSaGRXVSBUhipNNvHBKEomiFMSOaEs/OHlS9uHt7TWLOeaMMzxpPGxCoKs2x6KBuckcMxuQ&#xA;UnHIdEZZaxpF+7JY31vdugq6wSpIQD3IUmmRlAjmGJiRzReRQ7FXYq7FXYq+cf8AnID/AJTuP/mB&#xA;h/4nJm50H938XY6X6Hpmp61eaL+SNrqNkxS6i0mxSKQdVMyRRch7rzqMwowEs5B/nFxoxEstHvLz&#xA;D8rPy10/zpa6realeTxPAyxwmIqSZZFLF5OYbkOm1RXxzO1WpOMgAOTnzGFAKn5Hazf6d57XRVkL&#xA;WeoCaOeKvwc4I2kWQDx/dlfkcGtgJY+LqF1MQYWx/V9Km1f80tS0uKX0XvtYubf1aE8VkuHVjQUr&#xA;RSdsuhLhxA90f0NkZVjB8ntcfkLTfJ35deaLW0me5e6sbuSW4kADELbMqr8PZdyPnms8c5MkSe8f&#xA;e4Ximcw8L8hyeco9cZvKIY6r6LhuKwsfSqvLaYFOtPfNpn4OH18nOy8Nerkznyf+UnnPUfNcWs+a&#xA;Izbwxzi7uXleOSWeRWD8AqFqBj1rTbpmLm1cBDhg0ZM8RGopD+drun5k3roxV1S2ZWU0IIhUggjL&#xA;tF/dBs030PRtN8hxflx5b1nzHDctd6yLAqrOqhIpDQtx3PIc+J38MwpZ/GkI8o24xy+JIR6W8+/K&#xA;7yPaeetU1WfWruf9wqySPG6+rJLOW+JmcPWnEk7dczNVnOIDhDkZ8vABTf5c31/5X/NL9CwTNLbP&#xA;eS6bdIKhZQjtGshXxVhy+/HURE8XF5WuYCWO3fmZ/wCTmuf+Ymw/5MQY6b+4+f6Vw/3fzR//ADkB&#xA;r1/ceaY9GLsthZQxyLDuFaWQEmQ+NFIUeG/vkNBjAhxdSx0sRw2xPzHbeUXsrP8Aw3aarHeRgLeN&#xA;eRp6cm394nB3Kty7dKfjkYzOzxGNeTbAyv1U9Bu/O2vx/kdFI8kq6g9z+ipLpuQk9KjPUkitfTAS&#xA;v8cwxhj4/lzaBjHi/alX5ZflLpXmvyzd6ne3c0NwZXt7QRceCFFVubhgS1S3QEbfhZqdWccgAGWb&#xA;OYSoPQPIP5Xaj5f0/U7K51oXenarbtE1tDGQqO44+qjszCvAkfZ328MxM+qEyCBuGjLmEiDW4eKf&#xA;4Us/+Vjf4X9aT6p+kPqXr/D6nD1OHLpxr9GbPxT4fH1q3M4zwcXk+m/L2jWPlvQbTSYpy1taApHL&#xA;MVDHkzPvTiO+aPJMzkS62cjI2kP5seYrjSfIl9d6bNxuJmS2jnjIJT1WAcgjoeFaeB3y3S4xLIAW&#xA;eCFz3eTfln+Vmneb/L+paneXksNxHK1vahCvESLGsnOXkCWB5gbEd82Gp1RxyAAcvNnMCAET/wA4&#xA;+67fweZ59HEhawvIHlaEn4VljoQ4HYlag+O3hg18AY8XUI1URw2xDTNEk13z82jpMYBfXs0csq9R&#xA;HzZn27/Cp2zIlPhx8XcG6UuGFvS/zB8tx+RPytbStLnkkGpagiXtywCu6NG7cTx/Z/cqtPn45haf&#xA;J4uWz0DjYp8eSz0DD/Ln5cWmo/l3qfmttQeC9svWaCFeIj4wKGZX/a5PWi0Ph1zIyagxyCFbFtnm&#xA;qYjSff8AOOP/AB29Y/5ho/8Ak5lXaP0hhq+Qe9ZqXAdirsVdirsVeO/mx+WHmrzN5oTUdLjha2Ft&#xA;HCTJKEPJWcnY/wCtmx0uphCFFzMGaMY0Wfw+VUvPIFr5Z1QUP6PgtLgoa8ZIolHJT34utRmIctZD&#xA;Id7j8dT4h3vH1/Kn82PL1xdW/l+59S1ux6Us1tcLCHj3oXSRkKsP8mpHY5sfzWGYHE5nj45c2Y/l&#xA;R+Ut35avW1rWZEfUihjtreI8liD/AGmZqCrkbbbAePbH1WrExwx5NOfPxChySrT/AMrPNkH5ov5j&#xA;kjh/Rh1Oe7DCUF/Skkdl+GnWjDbJy1UDi4etMjnjwcPWnqvmewuNR8tatp9sAbi8s7i3hDGg5yxM&#xA;i1Pbc5gYpASBPQuLA1IF5f8AlP8Alh5q8s+aH1HVI4VtjbSQgxyhzyZkI2H+rmdqtTCcKDlZ80ZR&#xA;oPYs1zhvFPzN/Kjzd5h84XWq6bHC1pMkSoXlCNVI1U7EeIzZ6bVQhAAubhzxjGi9i1PTrXUtOudP&#xA;u15213E8My9DxcFTQ9jvtmujIxNhwwaNvCx+VH5oeVtXln8qXQmhkqizxyxxM0Z6CWOYhKivaviN&#xA;82n5rFkHrDnePCQ9Sf8A5b/lHqOi6v8A4l8zzx/WYA8sUCv6hDsDylmk6VAJ6V8a5VqdWJDhg15s&#xA;4kOGLzzzrrGm6x+a0mo6bOLiymurMRTAMA3pxxRtQMAftKRmZhgY4qPOi5GOJGOi9V/Nr8qrrzTN&#xA;DqukyRpqcMfozQykqssYJK0YA0dSx69R32zA0mqGPY8nFwZ+HY8mOr5f/wCcgb0W1nNemxgtgESd&#xA;biFKigFXMBZ3oPEZd4mnG9W2ceEbvQta8iNrXkgeXdS1CS6vQquNTkFW+sKSwfj/AC7lafy+++Yc&#xA;M/Dk4gNu5x45eGVgPKrX8uvzn0O0vNI0mVTp16StwIJ4QjAjiXX1eLpUChK0OZ51GCRBPMOWc2OW&#xA;55s3/KT8r73yqZ9R1WZW1C4T0o7aJiyRISCxJ2DO3EdOnjvmLq9SMmw5NGfMJbBiPnj8o/O8nnK6&#xA;1nQFWeO5uPrUMyTJDLDIx5GvNk+y3QrXMjBq8fAIybcWePDRZV5y8m+dvMn5caRpdz6c3mCC5We+&#xA;Z3VVIVJkryX4SaOvTKMOaEMpI+lqx5IxmT0VvJ/5Z3SflzfeVfMAWKS7neVXhYScNkMbg7bhk6YM&#xA;2pHiicVyZvXxBgS/lX+bmiC707R5+en3lUna2uViR18WSQowJAoaD2rTMv8ANYZUZcx5N/j45bln&#xA;n5T/AJVTeVJJtU1SVJdVnQwxxxEtHFGSGPxECrMQPlmJqtV4mw5NGfPxbDkx3yn+VHm7TPzCg1y6&#xA;jhFhHczzMyygtxkVwvw0/wAoZdl1UJY+Ec2zJniYUzz81Y/Lcvk+eHzBO9rZyyIsN1HG0rRz7lG4&#xA;qDtsQfbMTS8XH6ebRg4uLZ4XH5Ygj8ualcQ+cbN9KUM66dDJPHJczRrVFa1mWHetN6Nm1OX1AcBv&#xA;v/a53H6h6d2V/wDOOEbnV9akCn01t4lZuwLOSB9PE5j9o8g06vkHvGapwXYq7FXYq7FXYq7FXYq7&#xA;FXYq7FXYq7FXYq7FXYql3mT6t/h3VfrPq/Vvqc/r/V+PrcPSbl6XP4edPs12rk8d8QrvZQ5h4F5F&#xA;/wCVS/4ssa/pT1PXT6l9d9D0PW5fuvV9L4vtU9vHbNtn8bgPL4Ofl8ThPJ9HZpnXOxV2KuxV2Kux&#xA;V2KuxV2KuxV2KpF53/w1/hi+/wASU/RHEevWvKvIcOHH4ufKnGmW4OLjHDzZ4+Li9PN85Tf8ql+t&#xA;H0v079W5ClfqnKnen8M3I8av4ftdkPE8nuv5Uf4G/wAPN/hPn6XP/TfrH+9PqU29Xt06cfh8O+av&#xA;VeJxetwM/FfqZrmK0uxV2Kv/2Q==</xapGImg:image>
               </rdf:li>
            </rdf:Alt>
         </xap:Thumbnails>
         <xap:CreatorTool>Adobe Illustrator CS3</xap:CreatorTool>
         <xap:ModifyDate>2011-10-23T21:47:27+02:00</xap:ModifyDate>
         <xap:MetadataDate>2011-10-23T21:47:27+02:00</xap:MetadataDate>
      </rdf:Description>
      <rdf:Description rdf:about=""
            xmlns:xapTPg="http://ns.adobe.com/xap/1.0/t/pg/"
            xmlns:stDim="http://ns.adobe.com/xap/1.0/sType/Dimensions#"
            xmlns:xapG="http://ns.adobe.com/xap/1.0/g/">
         <xapTPg:MaxPageSize rdf:parseType="Resource">
            <stDim:w>130.000000</stDim:w>
            <stDim:h>100.000001</stDim:h>
            <stDim:unit>Millimeters</stDim:unit>
         </xapTPg:MaxPageSize>
         <xapTPg:NPages>1</xapTPg:NPages>
         <xapTPg:HasVisibleTransparency>False</xapTPg:HasVisibleTransparency>
         <xapTPg:HasVisibleOverprint>False</xapTPg:HasVisibleOverprint>
         <xapTPg:PlateNames>
            <rdf:Seq>
               <rdf:li>Cyan</rdf:li>
               <rdf:li>Magenta</rdf:li>
               <rdf:li>Yellow</rdf:li>
               <rdf:li>Black</rdf:li>
            </rdf:Seq>
         </xapTPg:PlateNames>
         <xapTPg:SwatchGroups>
            <rdf:Seq>
               <rdf:li rdf:parseType="Resource">
                  <xapG:groupName>Groupe de nuances par défaut</xapG:groupName>
                  <xapG:groupType>0</xapG:groupType>
               </rdf:li>
            </rdf:Seq>
         </xapTPg:SwatchGroups>
      </rdf:Description>
      <rdf:Description rdf:about=""
            xmlns:dc="http://purl.org/dc/elements/1.1/">
         <dc:format>image/svg+xml</dc:format>
      </rdf:Description>
      <rdf:Description rdf:about=""
            xmlns:xapMM="http://ns.adobe.com/xap/1.0/mm/">
         <xapMM:InstanceID>uuid:BFDCA3D33BFFE011843A93214CF4949A</xapMM:InstanceID>
      </rdf:Description>
   </rdf:RDF>
</x:xmpmeta>
                                                                                                    
                                                                                                    
                                                                                                    
                                                                                                    
                                                                                                    
                                                                                                    
                                                                                                    
                                                                                                    
                                                                                                    
                                                                                                    
                                                                                                    
                                                                                                    
                                                                                                    
                                                                                                    
                                                                                                    
                                                                                                    
                                                                                                    
                                                                                                    
                                                                                                    
                                                                                                    
                           
<?xpacket end="w"?>
	</metadata>
<g id="layer1" transform="translate(-58.124001,-45.284749)">
	<path id="path3078" fill="#7D4698" d="M108.874,283.754c-0.002,2.047,0,4.076,0,6.125h7.812v19.125h7.625v-19.125h7.781v-6.125
		H108.874z M173.905,283.754v25.25h7.656v-9.406c2.334-0.053,4.688,0.156,7-0.25c2.993-0.446,5.526-2.881,6.031-5.875
		c0.544-2.895,0.06-6.373-2.406-8.281c-2.282-1.668-5.226-1.415-7.906-1.438H173.905z M239.874,283.754v4.781h6.812v-4.781H239.874z
		 M307.593,283.754l-6.812,3.531v3.438h-2.469v5.031h2.469v2.188c0.05,2.561-0.182,5.154,0.281,7.688
		c0.119,1.446,1.248,2.59,2.469,3.25c2.637,0.961,5.498,0.461,8.156-0.156l-0.469-4.188c0.141-0.977-0.832-0.262-1.406-0.25
		c-1.06,0.389-2.312-0.235-2.188-1.469c-0.054-2.346-0.017-4.716-0.031-7.062h3.844v-5.031h-3.844V283.754z M181.561,288.816
		c1.497,0.069,3.057-0.236,4.469,0.406c1.634,0.777,1.845,3.23,0.531,4.406c-1.064,0.986-2.599,0.754-3.938,0.781
		c-0.312-0.086-0.969,0.179-1.062-0.125V288.816z M141.218,290.16c-2.885-0.047-5.874,0.943-7.781,3.188
		c-1.76,1.887-2.423,4.566-2.281,7.094c0.049,2.523,1.067,5.082,3.094,6.656c2.688,2.292,6.517,2.677,9.875,2.031
		c2.829-0.562,5.43-2.408,6.594-5.094c1.585-3.607,1.082-8.242-1.75-11.094C146.956,290.902,143.995,290.216,141.218,290.16z
		 M166.499,290.16c-0.956,0-1.786,0.267-2.469,0.812c-0.683,0.409-1.223,1.365-1.906,2.594v-2.844h-6.406v18.281h6.969v-6.156
		c0-3.004,0.254-4.907,0.938-6c0.546-0.818,1.231-1.219,2.188-1.219c0.411,0,1.086,0.258,1.906,0.531l2.062-4.906
		C168.551,290.57,167.455,290.16,166.499,290.16z M209.53,290.16c-0.58-0.004-1.146,0.101-1.688,0.375
		c-1.282,0.574-1.951,1.863-2.594,3.031v-2.844h-6.438c-0.002,6.098,0,12.182,0,18.281h6.969v-1.969
		c0.031-2.441-0.081-4.879,0.156-7.312c0.171-1.426,0.467-3.151,1.875-3.875c0.993-0.534,2.071-0.012,3.031,0.312l1.781-4.312
		c0.267-0.434,0.298-0.791-0.312-0.906C211.464,290.488,210.497,290.166,209.53,290.16z M224.78,290.16
		c-2.845-0.045-5.808,0.908-7.719,3.094c-1.792,1.854-2.672,4.474-2.531,7.031c0.039,2.602,1.214,5.201,3.281,6.812
		c2.75,2.34,6.645,2.697,10.062,1.969c2.785-0.603,5.324-2.463,6.438-5.125c1.542-3.631,0.982-8.285-1.906-11.094
		C230.397,290.869,227.509,290.241,224.78,290.16z M260.686,290.16c-2.91-0.049-5.974,0.965-7.875,3.25
		c-2.451,2.829-2.831,7.107-1.406,10.5c1.013,2.485,3.174,4.539,5.844,5.094c2.521,0.549,5.162,0.53,7.688,0.031
		c1.707-0.32,3.26-1.271,4.375-2.594c0.469-0.637,1.549-1.725,1.438-2.25l-6.5-0.625c-0.607,0.672-1.212,1.449-2.188,1.531
		c-1.537,0.389-3.361-0.269-4.062-1.75c-0.084-0.51-0.972-2.008,0-1.844h13.344c0.07-2.811-0.291-5.824-2.094-8.094
		c-1.092-1.318-2.6-2.295-4.281-2.656C263.571,290.394,262.128,290.191,260.686,290.16z M284.655,290.16
		c-1.693,0.073-3.369,0.416-4.938,1.062c-1.845,0.857-3.298,2.504-4.125,4.344c-0.951,2.144-0.892,4.598-0.562,6.875
		c0.307,2.375,1.95,4.434,4,5.594c1.707,1.026,3.742,1.207,5.688,1.344c2.279,0.074,4.757-0.003,6.719-1.312
		c2.055-1.155,3.393-3.229,4-5.469l-6.531-0.812c-0.26,1.104-0.939,2.059-1.969,2.562c-1.77,0.721-4.281,0.113-4.938-1.844
		c-0.503-1.525-0.427-3.195-0.094-4.75c0.344-1.703,2.08-2.857,3.781-2.656c1.373-0.068,2.758,0.91,2.938,2.312l6.406-0.844
		c-0.603-2.703-2.635-5.071-5.344-5.812C288.06,290.308,286.349,290.087,284.655,290.16z M337.124,290.16
		c-2.885-0.048-5.904,0.943-7.812,3.188c-1.828,1.953-2.49,4.726-2.281,7.344c0.154,3.174,2.055,6.213,4.938,7.594
		c2.584,1.262,5.635,1.371,8.406,0.75c2.758-0.652,5.223-2.57,6.312-5.219c1.544-3.684,0.898-8.408-2.125-11.156
		C342.561,290.818,339.77,290.22,337.124,290.16z M362.28,290.16c-0.58-0.004-1.146,0.101-1.688,0.375
		c-1.282,0.574-1.951,1.863-2.594,3.031v-2.844h-6.406c-0.002,6.098-0.031,12.182-0.031,18.281h6.969v-1.969
		c0.031-2.441-0.081-4.879,0.156-7.312c0.171-1.427,0.467-3.151,1.875-3.875c0.993-0.534,2.071-0.012,3.031,0.312l1.812-4.312
		c0.268-0.434,0.298-0.791-0.312-0.906C364.245,290.488,363.247,290.166,362.28,290.16z M374.936,290.16
		c-2.868-0.124-5.568,1.871-6.531,4.531c-0.98,2.59-0.873,5.471-0.219,8.125c0.758,2.846,3.314,5.195,6.312,5.344
		c1.647,0.086,3.468-0.256,4.75-1.344c0.532-0.574,1.393-1.655,1.125-0.219c-0.023,1.404,0.191,2.906-0.406,4.219
		c-0.81,1.287-2.653,1.455-3.938,0.844c-1.088-0.04-0.789-1.899-2-1.656l-5.781-0.594c-0.621,2.643,1.083,5.621,3.75,6.281
		c2.727,0.855,5.623,0.754,8.438,0.5c2.376-0.256,4.849-1.381,5.938-3.625c1.021-1.825,1.045-3.939,1-5.969v-15.875h-6.438v2.594
		C379.629,291.334,377.329,290.062,374.936,290.16z M239.874,290.722c0.002,5.038,0,10.055,0,15.094
		c-0.053,1.342,0.143,2.741-0.312,4.031c-0.43,1.104-1.771,1.051-2.719,0.812l-1.062,5.188c1.969,0.231,3.914,0.67,5.906,0.5
		c1.408-0.056,2.739-0.729,3.719-1.719c1.145-1.408,1.212-3.33,1.281-5.062c0.034-6.283-0.009-12.561,0-18.844H239.874z
		 M260.968,294.41c1.109-0.033,2.342,0.434,2.781,1.531c0.213,0.602,0.9,1.961,0.375,2.281h-6.562
		c0.123-1.521,0.84-3.24,2.438-3.688C260.308,294.449,260.648,294.41,260.968,294.41z M141.343,295.097
		c1.599-0.062,2.907,1.292,3.125,2.812c0.247,1.545,0.28,3.197-0.25,4.688c-0.509,1.109-1.583,2.096-2.875,2.031
		c-1.056,0.153-2.05-0.654-2.656-1.5c-0.867-1.379-0.798-3.097-0.656-4.656c0.128-1.363,0.89-2.768,2.25-3.219
		C140.624,295.134,140.98,295.097,141.343,295.097z M224.405,295.097h0.188h0.188c1.593-0.117,2.971,1.191,3.219,2.719
		c0.28,1.512,0.283,3.112-0.156,4.594c-0.467,1.248-1.656,2.336-3.062,2.219c-1.019,0.136-2.016-0.65-2.562-1.5
		c-0.881-1.42-0.794-3.213-0.625-4.812C221.75,296.802,222.778,295.228,224.405,295.097z M337.249,295.097
		c1.646-0.064,2.906,1.398,3.125,2.938c0.238,1.509,0.23,3.116-0.312,4.562c-0.519,1.09-1.522,2.1-2.812,2.031
		c-1.061,0.148-2.109-0.643-2.719-1.5c-0.848-1.387-0.747-3.098-0.625-4.656c0.111-1.314,0.8-2.671,2.094-3.156
		C336.39,295.156,336.828,295.096,337.249,295.097z M377.405,295.347c1.805-0.066,3.114,1.747,3.094,3.438
		c0.18,1.634-0.223,3.666-1.875,4.406c-1.45,0.668-3.466-0.109-3.812-1.75c-0.51-1.706-0.438-3.705,0.562-5.219
		C375.849,295.615,376.638,295.28,377.405,295.347z M315.874,301.91v7.094h7.219v-7.094H315.874z"/>
	<g id="g3060" transform="matrix(1.4656327,0,0,1.4656327,-114.91364,-92.589999)">
		<path id="path2534-7" fill="#FFFCDB" d="M243.455,141.739l10.996,4.562c0,2.796-0.227,11.324,1.521,13.84
			c18.287,23.553,15.21,70.764-3.705,71.975c-28.804,0-39.79-19.567-39.79-37.552c0-16.401,19.661-27.303,31.403-36.994
			C246.862,154.96,246.344,149.194,243.455,141.739z"/>
		
			<linearGradient id="path2536-6_1_" gradientUnits="userSpaceOnUse" x1="390.4234" y1="-68.1908" x2="390.4234" y2="53.1557" gradientTransform="matrix(1 0 0 -1 -116.9274 163.5249)">
			<stop  offset="0" style="stop-color:#482957"/>
			<stop  offset="1" style="stop-color:#C19ED3"/>
		</linearGradient>
		<path id="path2536-6" fill="url(#path2536-6_1_)" d="M254.454,146.137l3.963,2.022c-0.372,2.608,0.187,8.387,2.795,9.877
			c11.555,7.175,22.457,15.002,26.744,22.83c15.282,27.582-10.717,53.114-33.174,50.691c12.207-9.039,15.749-27.582,11.183-47.803
			c-1.864-7.921-4.753-15.096-9.879-23.203C253.866,156.571,254.641,151.635,254.454,146.137z"/>
		<g id="g4942" transform="matrix(1.1111963,0,0,1.1111963,39.131448,34.108974)">
			<path id="path2554-7" fill="#ABCD03" d="M197.761,74.04l-3.019,11.991c4.277-8.469,11.069-14.842,18.868-20.461
				c-5.702,6.625-10.901,13.25-14.088,19.875c5.367-7.548,12.578-11.74,20.712-14.508c-10.817,9.644-19.404,19.992-25.946,30.391
				l-5.199-2.264C190.012,90.762,193.148,82.259,197.761,74.04z"/>
			<path id="path4724" fill="#437202" d="M213.625,65.563c-3.878,4.14-10.59,11.403-14.188,17.75
				c-3.068,5.414-5.173,10.23-6.344,13.469c-0.749,2.072-3.782,2.051-2.906-1.375c0.009-0.034,0.022-0.059,0.031-0.094
				c1.168-2.759,2.939-6.611,4.719-10l2.812-11.281c-1.386,4.762-3.372,9.099-4.593,14.031c0.001,0-2.147,4.934-2.719,6.187
				c-0.195,0.426-0.357,0.836-0.5,1.219c-0.01,0.025-0.023,0.039-0.031,0.063c-0.243,0.541-0.407,1.133-0.531,1.656
				c-0.02,0.085-0.014,0.137-0.031,0.219c-0.161,0.741-0.251,1.312-0.251,1.312c0.874,0.754,5.188,2.625,5.188,2.625
				c6.541-10.398,15.15-20.763,25.969-30.406c-8.135,2.768-15.352,6.952-20.719,14.5C202.718,78.813,207.923,72.187,213.625,65.563z
				"/>
			<path id="path4720" fill="#153902" d="M193.34,100.635l0.941,0.708c6.541-10.398,15.15-20.763,25.969-30.406
				c-6.205,5.076-14.537,12.069-18.063,16.688c-4.459,5.842-1.835,0.354-1.835,0.354s2.362-6.11,6.521-9.943
				c-2.417,1.154-6.604,6.364-7.342,7.401c0,0-3.145,6.105-4.898,11.626C194.162,98.544,193.34,100.635,193.34,100.635z"/>
		</g>
		<path id="path4748" fill="#F3ECAA" d="M251.3,144.985v87.125c0.327,0.005,0.641,0,0.972,0
			c18.916-1.211,22.003-48.432,3.716-71.985c-1.748-2.516-1.528-11.024-1.528-13.821L251.3,144.985z"/>
		<g id="layer4-3" transform="matrix(0.68230175,0,0,0.68230175,78.404988,63.177814)">
			<path id="path2538-6" d="M255.226,120.587l12.018,1.639c-3.551,11.745,6.967,19.939,10.381,21.852
				c7.647,4.234,15.022,8.604,20.896,13.93c11.063,10.106,17.345,24.31,17.345,39.333c0,14.886-6.829,29.226-18.301,38.786
				c-10.789,9.014-25.676,12.838-40.152,12.838c-9.014,0-17.072-0.409-25.812-3.277c-19.939-6.693-34.826-23.764-36.055-44.25
				c-1.093-15.979,2.458-28.135,14.887-40.836c6.418-6.692,19.393-14.34,28.271-20.486c4.371-3.005,9.014-11.473,0.136-27.451
				l1.776-1.366l13.156,8.812l-11.107-4.578c0.956,1.366,3.551,7.512,4.098,9.287c1.229,5.053,0.683,9.971-0.41,12.155
				c-5.599,10.107-15.159,12.838-22.124,18.574c-12.292,10.106-25.676,18.164-24.174,45.889
				c0.683,13.656,11.336,30.318,27.314,38.104c9.014,4.371,19.394,6.146,29.91,6.691c9.423,0.41,27.451-5.189,37.284-13.384
				c10.516-8.739,16.389-21.987,16.389-35.508c0-13.658-5.463-26.632-15.706-35.783c-5.873-5.326-15.569-11.745-21.577-15.16
				c-6.01-3.414-13.521-12.974-11.063-22.124L255.226,120.587z"/>
			<path id="path2540-5" d="M251.539,140.8c-1.229,6.283-2.595,17.618-8.058,21.852c-2.322,1.638-4.644,3.278-7.102,4.916
				c-9.833,6.693-19.667,12.974-24.173,29.09c-0.956,3.414-0.136,7.102,0.684,10.516c2.458,9.833,9.423,20.486,14.886,26.77
				c0,0.272,1.093,0.955,1.093,1.229c4.507,5.327,5.873,6.829,22.944,10.652l-0.41,1.912c-10.243-2.73-18.71-5.188-24.037-11.336
				c0-0.136-0.956-1.093-0.956-1.093c-5.736-6.556-12.702-17.481-15.296-27.724c-0.956-4.098-1.775-7.238-0.683-11.473
				c4.643-16.662,14.75-23.218,24.993-30.183c2.322-1.502,5.053-2.869,7.238-4.644C246.895,158.146,249.216,148.584,251.539,140.8z"
				/>
			<path id="path2542-6" d="M255.906,166.748c0.137,7.102-0.557,10.665,1.219,15.719c1.092,3.004,4.782,7.102,5.875,11.063
				c1.502,5.326,3.139,11.199,3,14.75c0,4.098-0.256,11.742-2.031,19.938c-1.354,6.771-4.473,12.581-9.719,15.875
				c-5.373-1.107-11.682-2.996-15.406-6.188c-7.238-6.282-13.649-16.787-14.469-25.938c-0.682-7.512,6.272-18.589,15.969-24.188
				c8.194-4.78,10.099-10.228,11.875-18.969c-2.457,7.648-4.766,14.059-12.687,18.156c-11.472,6.008-17.359,16.096-16.812,25.657
				c0.819,12.291,5.741,20.619,15.438,27.312c4.097,2.867,11.751,5.898,16.531,6.719v-0.625c3.625-0.68,8.318-6.633,10.656-14.688
				c2.049-7.238,2.857-16.502,2.719-22.375c-0.137-3.414-1.643-10.809-4.375-17.5c-1.502-3.688-3.809-7.374-5.312-9.969
				C256.738,178.901,256.726,173.303,255.906,166.748z"/>
			<path id="path2544-3" d="M255.093,193.53c0.137,4.779,2.057,10.904,2.875,17.188c0.684,4.644,0.387,9.308,0.25,13.406
				c-0.135,4.742-1.715,13.242-3.875,17.375c-2.037-0.935-2.832-2-4.156-3.719c-1.638-2.322-2.75-4.645-3.843-7.375
				c-0.819-2.049-1.777-4.395-2.188-7.125c-0.546-4.098-0.393-10.507,4.25-17.062c3.55-5.19,4.365-5.586,5.593-11.594
				c-1.64,5.326-2.862,5.869-6.687,10.375c-4.233,4.916-4.938,12.158-4.938,18.031c0,2.459,0.98,5.187,1.938,7.781
				c1.092,2.731,2.029,5.451,3.531,7.5c2.257,3.32,5.148,5.209,6.562,5.562c0.01,0.002,0.022-0.003,0.031,0
				c0.031,0.007,0.064,0.025,0.094,0.031v-0.156c2.65-2.955,4.244-5.89,4.781-8.844c0.684-3.551,0.84-7.11,1.25-11.344
				c0.409-3.551,0.112-8.334-0.844-13.25C258.353,204.165,256.049,197.899,255.093,193.53z"/>
			<path id="path2550-9" d="M255.499,135.064c0.137,7.101,0.682,20.35,2.594,25.539c0.547,1.775,5.6,9.56,9.149,18.983
				c2.459,6.556,3.005,12.564,3.415,14.34c1.639,7.785-0.41,20.896-3.143,33.324c-1.364,6.691-6.008,15.023-11.334,18.301
				l-1.092,1.912c3.004-0.137,10.379-7.375,12.974-16.389c4.37-15.297,6.146-22.398,4.098-39.334
				c-0.272-1.64-0.956-7.237-3.551-13.248c-3.824-9.151-9.287-17.891-9.97-19.667C257.411,155.959,255.772,143.531,255.499,135.064z
				"/>
			<path id="path2552-4" d="M258.062,125.352c-0.406,7.298-0.514,9.986,0.851,15.312c1.503,5.873,9.151,14.34,12.292,24.037
				c6.01,18.574,4.508,42.884,0.137,61.867c-1.639,6.691-9.424,16.39-17.209,19.529l5.736,1.366
				c3.141-0.138,11.198-7.647,14.34-16.252c5.053-13.521,6.01-29.636,3.961-46.571c-0.138-1.639-2.869-16.252-5.464-22.398
				c-3.688-9.15-10.243-17.345-10.926-19.119C260.552,140.117,257.853,133.879,258.062,125.352z"/>
			<path id="rect2556-8" d="M253.719,120.215c0.06-0.006,0.119,3.265,0.168,9.562c0.048,6.297,0.086,15.614,0.106,27.251
				c0.021,11.637,0.026,25.584,0.018,40.798c-0.01,15.215-0.033,31.684-0.063,48.18c0.031,0,0.062,0,0.094,0
				c0-15.527,0.005-31.045,0.016-45.526c0.01-14.481,0.024-27.917,0.044-39.414s0.041-21.049,0.066-28.013
				s0.053-11.337,0.081-12.816C253.902,120.244,253.718,120.229,253.719,120.215c-0.001-0.014,0.183-0.028,0.571-0.021
				c0.029,1.424,0.057,5.75,0.081,12.697c0.025,6.947,0.048,16.511,0.067,28.057c0.019,11.545,0.033,25.065,0.043,39.65
				c0.011,14.585,0.016,30.226,0.016,45.865c-0.335,0-0.671,0-1.006,0c-0.03-16.556-0.055-33.097-0.063-48.376
				c-0.01-15.279-0.005-29.284,0.017-40.963c0.021-11.679,0.059-21.022,0.107-27.332
				C253.601,123.481,253.66,120.209,253.719,120.215z"/>
		</g>
	</g>
	<path id="path2528" fill="#7D4698" d="M99.943,82.075h109.668c4.096,0,7.647,3.414,7.647,7.648v32.367
		c0,4.234-3.551,7.649-7.647,7.649h-22.534c-5.054,0-7.239,2.867-7.239,6.145v105.98c0,3.551-2.868,6.282-6.282,6.282h-37.284
		c-3.415,0-6.146-2.731-6.146-6.282V134.929c0-3.278-3.005-5.189-5.326-5.189H99.943c-4.234,0-7.648-3.415-7.648-7.649V89.723
		C92.294,85.489,95.708,82.075,99.943,82.075z"/>
	<path id="path2532" fill="#7D4698" d="M381.307,124.959h0.137h9.56c3.551,0,6.419,2.868,6.419,6.282v34.69
		c0,4.507,0.273,6.282-5.19,6.282c-10.788,0-15.704,5.736-15.704,12.018v58.589c0,2.732-2.596,5.053-5.736,5.053h-34.827
		c-3.141,0-5.736-2.32-5.736-5.053v-66.784c-0.037-1.174-0.015-2.908,0.137-3.823c1.912-24.72,21.309-44.498,45.889-46.981
		C377.077,125.149,379.992,124.959,381.307,124.959z"/>
	<g id="layer7" transform="matrix(1.8025885,0,0,1.8025885,-321.30782,-98.80226)">
		<path id="text4064" fill="#7D4698" d="M405.999,129.097h0.031c0.298,0,0.565-0.003,0.781,0.031c0.21,0.028,0.374,0.107,0.5,0.187
			c0.128,0.074,0.215,0.165,0.281,0.313c0.058,0.131,0.119,0.327,0.125,0.562c-0.001,0.01-0.001,0.021,0,0.031
			c-0.001,0.01-0.001,0.021,0,0.031c-0.001,0.01-0.001,0.021,0,0.031c-0.007,0.498-0.144,0.827-0.375,1
			c-0.245,0.183-0.679,0.281-1.281,0.281h-0.063V129.097z M406.624,126.66c1.958-0.038,3.909,1.14,4.726,2.923
			c0.945,1.848,0.685,4.276-0.748,5.808c-0.144,0.166-0.042-0.316-0.073-0.449c-0.023-0.195-0.284-0.175-0.444-0.227
			c-0.205,0.002-0.324-0.127-0.417-0.295c-0.526-0.732-1.052-1.464-1.577-2.196c0.633-0.205,1.221-0.632,1.438-1.284
			c0.358-0.918-0.067-2.062-0.976-2.474c-0.939-0.471-2.015-0.304-3.028-0.336c-0.689,0.007-1.387-0.014-2.07,0.009
			c-0.155,0.153-0.053,0.411-0.082,0.615c0.039,0.081,0.074,0.162,0.184,0.165c0.189,0.028,0.378,0.057,0.566,0.085
			c0,1.896,0,3.792,0,5.688c-0.216,0.068-0.497,0.018-0.656,0.187c0.008,0.221-0.016,0.453,0.01,0.668
			c0.119,0.113,0.321,0.02,0.473,0.051c0.943,0,1.887,0,2.83,0c0.135-0.112,0.029-0.326,0.063-0.481
			c0.006-0.121,0.031-0.306-0.125-0.331c-0.239-0.031-0.479-0.063-0.719-0.094c0-0.719,0-1.438,0-2.156
			c0.219-0.069,0.304,0.113,0.401,0.271c0.606,0.899,1.212,1.798,1.818,2.698c-0.003,0.091,0.135,0.114,0.178,0.105
			c0.67-0.026,1.363-0.004,2.04-0.011c-0.547,0.645-1.325,1.069-2.112,1.357c-1.716,0.586-3.726,0.204-5.083-1.007
			c-1.473-1.295-2.1-3.436-1.615-5.33c0.522-2.166,2.547-3.912,4.799-3.954C406.491,126.662,406.557,126.66,406.624,126.66z
			 M406.656,125.597c-1.859-0.031-3.692,0.87-4.869,2.294c-1.29,1.565-1.769,3.749-1.227,5.706c0.566,2.155,2.354,3.92,4.515,4.459
			c2.262,0.59,4.836-0.148,6.361-1.943c0.991-1.096,1.56-2.567,1.533-4.047c0.025-0.55-0.036-1.16-0.163-1.719
			C412.178,127.589,409.463,125.551,406.656,125.597z"/>
	</g>
</g>
</svg>
