<?xml version="1.0" encoding="UTF-8" standalone="no"?>
<svg
   xmlns:dc="http://purl.org/dc/elements/1.1/"
   xmlns:cc="http://creativecommons.org/ns#"
   xmlns:rdf="http://www.w3.org/1999/02/22-rdf-syntax-ns#"
   xmlns:svg="http://www.w3.org/2000/svg"
   xmlns="http://www.w3.org/2000/svg"
   xmlns:sodipodi="http://sodipodi.sourceforge.net/DTD/sodipodi-0.dtd"
   xmlns:inkscape="http://www.inkscape.org/namespaces/inkscape"
   enable-background="new 0 0 128 128"
   height="128px"
   id="Layer_1"
   version="1.1"
   viewBox="0 0 128 128"
   width="128px"
   xml:space="preserve"
   inkscape:version="0.91 r13725"
   sodipodi:docname="FileTansferActive.svg"><metadata
     id="metadata13"><rdf:RDF><cc:Work
         rdf:about=""><dc:format>image/svg+xml</dc:format><dc:type
           rdf:resource="http://purl.org/dc/dcmitype/StillImage" /></cc:Work></rdf:RDF></metadata><defs
     id="defs11" /><sodipodi:namedview
     pagecolor="#ffffff"
     bordercolor="#666666"
     borderopacity="1"
     objecttolerance="10"
     gridtolerance="10"
     guidetolerance="10"
     inkscape:pageopacity="0"
     inkscape:pageshadow="2"
     inkscape:window-width="981"
     inkscape:window-height="729"
     id="namedview9"
     showgrid="false"
     inkscape:zoom="1.84375"
     inkscape:cx="64"
     inkscape:cy="64"
     inkscape:window-x="2610"
     inkscape:window-y="192"
     inkscape:window-maximized="0"
     inkscape:current-layer="Layer_1" /><g
     id="g3"
     style="fill:#008000"><path
       d="M111.276,77.913l-3.286-3.286c-2.293-2.292-6.006-2.299-8.292-0.013l-4.254,4.253V26.081   c0-3.204-2.606-5.804-5.822-5.804h-4.608c-3.213,0-5.818,2.6-5.818,5.804v52.785l-4.254-4.252c-2.287-2.287-6-2.279-8.292,0.013   l-3.288,3.285c-2.292,2.295-2.299,6.006-0.011,8.293l19.807,19.81c1.147,1.147,2.656,1.716,4.163,1.708   c1.507,0.007,3.013-0.561,4.161-1.709l19.809-19.809C113.574,83.92,113.569,80.207,111.276,77.913z"
       fill="#232323"
       id="path5"
       style="fill:#008000" /><path
       d="M16.724,50.086l3.287,3.287c2.293,2.292,6.005,2.299,8.292,0.014l4.254-4.253v52.786   c0,3.205,2.606,5.804,5.821,5.804h4.609c3.214,0,5.82-2.599,5.82-5.804V49.134l4.253,4.252c2.287,2.287,6,2.279,8.292-0.014   l3.287-3.286c2.292-2.293,2.298-6.004,0.011-8.292L44.843,21.985c-1.147-1.146-2.656-1.716-4.162-1.708   c-1.508-0.006-3.014,0.562-4.163,1.709L16.71,41.794C14.425,44.08,14.43,47.793,16.724,50.086z"
       fill="#232323"
       id="path7"
       style="fill:#008000" /></g></svg>