<?xml version="1.0" ?><svg height="48px" id="svg11300" width="48px" xmlns="http://www.w3.org/2000/svg" xmlns:cc="http://creativecommons.org/ns#" xmlns:dc="http://purl.org/dc/elements/1.1/" xmlns:inkscape="http://www.inkscape.org/namespaces/inkscape" xmlns:rdf="http://www.w3.org/1999/02/22-rdf-syntax-ns#" xmlns:sodipodi="http://sodipodi.sourceforge.net/DTD/sodipodi-0.dtd" xmlns:svg="http://www.w3.org/2000/svg" xmlns:xlink="http://www.w3.org/1999/xlink"><defs id="defs3"><radialGradient cx="605.71429" cy="486.64789" fx="605.71429" fy="486.64789" gradientTransform="matrix(-2.774389,0,0,1.969706,112.7623,-872.8854)" gradientUnits="userSpaceOnUse" id="radialGradient6719" r="117.14286" xlink:href="#linearGradient5060"/><linearGradient id="linearGradient5060"><stop id="stop5062" offset="0" style="stop-color:black;stop-opacity:1;"/><stop id="stop5064" offset="1" style="stop-color:black;stop-opacity:0;"/></linearGradient><radialGradient cx="605.71429" cy="486.64789" fx="605.71429" fy="486.64789" gradientTransform="matrix(2.774389,0,0,1.969706,-1891.633,-872.8854)" gradientUnits="userSpaceOnUse" id="radialGradient6717" r="117.14286" xlink:href="#linearGradient5060"/><linearGradient id="linearGradient5048"><stop id="stop5050" offset="0" style="stop-color:black;stop-opacity:0;"/><stop id="stop5056" offset="0.5" style="stop-color:black;stop-opacity:1;"/><stop id="stop5052" offset="1" style="stop-color:black;stop-opacity:0;"/></linearGradient><linearGradient gradientTransform="matrix(2.774389,0,0,1.969706,-1892.179,-872.8854)" gradientUnits="userSpaceOnUse" id="linearGradient6715" x1="302.85715" x2="302.85715" xlink:href="#linearGradient5048" y1="366.64789" y2="609.50507"/><linearGradient id="linearGradient3563"><stop id="stop3565" offset="0" style="stop-color:#ffffff;stop-opacity:1;"/><stop id="stop3567" offset="1" style="stop-color:#939393;stop-opacity:1;"/></linearGradient><linearGradient id="linearGradient3555"><stop id="stop3557" offset="0" style="stop-color:#f2f2f2;stop-opacity:1;"/><stop id="stop3559" offset="1" style="stop-color:#d0d0d0;stop-opacity:1;"/></linearGradient><linearGradient gradientUnits="userSpaceOnUse" id="aigrd1" style="stroke-dasharray:none;stroke-miterlimit:4.0000000;stroke-width:1.2166667" x1="12.4873" x2="31.0813" y1="3.7319" y2="36.0328"><stop id="stop16177" offset="0" style="stop-color:#D2D2D2;stroke-dasharray:none;stroke-miterlimit:4.0000000;stroke-width:1.2166667"/><stop id="stop16179" offset="1" style="stop-color:#EDEDED;stroke-dasharray:none;stroke-miterlimit:4.0000000;stroke-width:1.2166667"/></linearGradient><linearGradient gradientTransform="matrix(1.211383,0,0,1.211383,-2.021433,0.189894)" gradientUnits="userSpaceOnUse" id="linearGradient16280" x1="12.4873" x2="31.0813" xlink:href="#aigrd1" y1="3.7319" y2="36.0328"/><linearGradient id="linearGradient12129"><stop id="stop12131" offset="0" style="stop-color:#000000;stop-opacity:1;"/><stop id="stop12133" offset="1" style="stop-color:#000000;stop-opacity:0;"/></linearGradient><radialGradient cx="24.218407" cy="41.636040" fx="24.218407" fy="41.636040" gradientTransform="matrix(1.000000,0.000000,0.000000,0.184000,0.000000,33.97501)" gradientUnits="userSpaceOnUse" id="radialGradient12135" r="22.097088" xlink:href="#linearGradient12129"/><radialGradient cx="26.728037" cy="38.34853" fx="26.728037" fy="38.34853" gradientTransform="matrix(1.848501,-1.547102e-23,1.227926e-24,1.289078,-21.29931,-13.68176)" gradientUnits="userSpaceOnUse" id="radialGradient3561" r="17.926361" xlink:href="#linearGradient3555"/><linearGradient gradientTransform="translate(-1.056826e-16,0.883885)" gradientUnits="userSpaceOnUse" id="linearGradient3569" x1="28.107494" x2="22.169001" xlink:href="#linearGradient3563" y1="34.868584" y2="9.8661737"/></defs><g id="layer1"><g id="g6707" style="display:inline" transform="matrix(2.367169e-2,0,0,2.086758e-2,45.08634,40.14468)"><rect height="478.35718" id="rect6709" style="opacity:0.40206185;color:black;fill:url(#linearGradient6715);fill-opacity:1;fill-rule:nonzero;stroke:none;stroke-width:1;stroke-linecap:round;stroke-linejoin:miter;marker:none;marker-start:none;marker-mid:none;marker-end:none;stroke-miterlimit:4;stroke-dasharray:none;stroke-dashoffset:0;stroke-opacity:1;visibility:visible;display:inline;overflow:visible" width="1339.6335" x="-1559.2523" y="-150.69685"/><path d="M -219.61876,-150.68038 C -219.61876,-150.68038 -219.61876,327.65041 -219.61876,327.65041 C -76.744594,328.55086 125.78146,220.48075 125.78138,88.454235 C 125.78138,-43.572302 -33.655436,-150.68036 -219.61876,-150.68038 z " id="path6711" style="opacity:0.40206185;color:black;fill:url(#radialGradient6717);fill-opacity:1;fill-rule:nonzero;stroke:none;stroke-width:1;stroke-linecap:round;stroke-linejoin:miter;marker:none;marker-start:none;marker-mid:none;marker-end:none;stroke-miterlimit:4;stroke-dasharray:none;stroke-dashoffset:0;stroke-opacity:1;visibility:visible;display:inline;overflow:visible"/><path d="M -1559.2523,-150.68038 C -1559.2523,-150.68038 -1559.2523,327.65041 -1559.2523,327.65041 C -1702.1265,328.55086 -1904.6525,220.48075 -1904.6525,88.454235 C -1904.6525,-43.572302 -1745.2157,-150.68036 -1559.2523,-150.68038 z " id="path6713" style="opacity:0.40206185;color:black;fill:url(#radialGradient6719);fill-opacity:1;fill-rule:nonzero;stroke:none;stroke-width:1;stroke-linecap:round;stroke-linejoin:miter;marker:none;marker-start:none;marker-mid:none;marker-end:none;stroke-miterlimit:4;stroke-dasharray:none;stroke-dashoffset:0;stroke-opacity:1;visibility:visible;display:inline;overflow:visible"/></g><path d="M 45.343675,39.903974 C 45.343675,41.842189 43.768877,43.416987 41.830663,43.416987 L 6.3371177,43.416987 C 4.3989037,43.416987 2.8241047,41.842189 2.8241047,39.903974 L 2.8241047,7.0947821 C 2.8241047,5.1565681 4.3989037,3.581769 6.3371177,3.581769 L 41.830663,3.581769 C 43.768877,3.581769 45.343675,5.1565681 45.343675,7.0947821 L 45.343675,39.903974 L 45.343675,39.903974 z " id="path16181" style="fill:url(#linearGradient16280);fill-rule:nonzero;stroke:#646464;stroke-width:0.99234736;stroke-miterlimit:4;stroke-dasharray:none;stroke-opacity:1" transform="matrix(1.011299,0,0,1.004137,-0.356015,-9.658587e-2)"/><path d="M 41.467991,35.25247 L 6.6152692,35.25247 L 6.6152692,11.250058 L 41.467991,11.250058 L 41.467991,35.25247 L 41.467991,35.25247 z " id="path12125" style="fill:url(#radialGradient3561);fill-opacity:1;fill-rule:nonzero;stroke:url(#linearGradient3569);stroke-width:0.99794304;stroke-miterlimit:4;stroke-dasharray:none;stroke-opacity:0.61658032" transform="matrix(1.004226,0,0,0.9999,-0.143226,0.251056)"/><path d="M 44.480104,39.32848 C 44.480104,41.187964 43.499604,42.345241 41.640121,42.345241 L 6.6160507,42.345241 C 4.7565677,42.345241 3.6876787,41.276353 3.6876787,39.416869 L 3.6876787,7.5970548 C 3.6876787,5.737571 5.1985087,4.403517 7.0579927,4.403517 L 41.198179,4.403517 C 43.057662,4.403517 44.480104,5.737571 44.480104,7.5970548 L 44.480104,38.974927 L 44.480104,39.32848 z " id="path11975" style="fill:none;fill-rule:nonzero;stroke:#ffffff;stroke-width:0.99670035;stroke-miterlimit:4;stroke-dasharray:none;stroke-opacity:0.86010359" transform="matrix(1.005089,0,0,1.001536,-0.206445,8.971654e-2)"/><g id="g3551" transform="matrix(0.751031,0,0,0.764054,10.06196,10.18347)"><path d="M 11.318692,9.2240568 C 16.641997,14.693047 22.769247,19.123651 29.210664,22.931105 L 27.441568,24.159843 C 21.101863,20.04489 15.052508,15.498993 9.1840818,10.652117 L 11.318692,9.2240568 z " id="path2565" style="opacity:1;color:#000000;fill:#cc0000;fill-opacity:1;fill-rule:nonzero;stroke:#cc0000;stroke-width:2.64021659;stroke-linecap:round;stroke-linejoin:round;marker:none;marker-start:none;marker-mid:none;marker-end:none;stroke-miterlimit:4;stroke-dasharray:none;stroke-dashoffset:0;stroke-opacity:1;visibility:visible;display:inline;overflow:visible"/><path d="M 26.73892,8.9210568 C 21.867631,15.95255 15.247359,21.081199 7.9065151,25.28163 L 10.087564,23.520856 C 8.7241111,24.379297 25.574485,11.804168 23.852075,10.207903 L 26.73892,8.9210568 z " id="path2575" style="opacity:1;color:#000000;fill:#cc0000;fill-opacity:1;fill-rule:nonzero;stroke:#cc0000;stroke-width:2.64021564;stroke-linecap:round;stroke-linejoin:round;marker:none;marker-start:none;marker-mid:none;marker-end:none;stroke-miterlimit:4;stroke-dasharray:none;stroke-dashoffset:0;stroke-opacity:1;visibility:visible;display:inline;overflow:visible"/></g></g></svg>