<?xml version="1.0" ?><svg height="512" id="svg2" version="1.1" width="512" xmlns="http://www.w3.org/2000/svg" xmlns:cc="http://creativecommons.org/ns#" xmlns:dc="http://purl.org/dc/elements/1.1/" xmlns:inkscape="http://www.inkscape.org/namespaces/inkscape" xmlns:rdf="http://www.w3.org/1999/02/22-rdf-syntax-ns#" xmlns:sodipodi="http://sodipodi.sourceforge.net/DTD/sodipodi-0.dtd" xmlns:svg="http://www.w3.org/2000/svg"><defs id="defs4"/><g id="layer1" transform="translate(0,-540.36218)"><g id="g4305"><g id="g4345" transform="translate(28,-40.00001)"><path d="m 40,232 0,48 181.71875,0 L 245.75,255.96875 221.78125,232 z" id="rect3017-8-3" style="color:#000000;fill:#cccccc;fill-opacity:1;fill-rule:nonzero;stroke:none;stroke-width:80;marker:none;visibility:visible;display:inline;overflow:visible;enable-background:accumulate" transform="translate(-28,580.36219)"/><path d="m 40,40 0,48 336,0 0,-48 z m 0,96 0,48 133.875,0 c -3.18571,-3.78202 -4.89246,-8.77806 -4.6866,-13.71871 C 169.39426,165.34063 171.51071,160.5039 175,157 l 21,-21 z m 255.46875,0 35.125,35.125 35.125,-35.125 z M 40,328 l 0,48 156,0 -21,-21 c -3.49371,-3.49992 -5.61599,-8.33449 -5.82758,-13.2752 -0.21158,-4.94071 1.48963,-9.93901 4.67133,-13.7248 z M 330.59375,340.84375 295.4375,376 365.75,376 z M 40,424 l 0,48 336,0 0,-48 z" id="rect3017" style="color:#000000;fill:#222222;fill-opacity:1;fill-rule:nonzero;stroke:none;stroke-width:80;marker:none;visibility:visible;display:inline;overflow:visible;enable-background:accumulate" transform="translate(-28,580.36219)"/><rect height="48" id="rect3017-8-2" style="color:#000000;fill:#aaaaff;fill-opacity:0;fill-rule:nonzero;stroke:none;stroke-width:80;marker:none;visibility:visible;display:inline;overflow:visible;enable-background:accumulate" width="384" x="12" y="812.36218"/><path d="m 217.71875,694.9403 -56.5625,56.5625 84.875,84.84375 -84.875,84.875 56.5625,56.56253 84.875,-84.87502 84.84375,84.87502 L 444,921.22155 359.15625,836.34655 444,751.5028 l -56.5625,-56.5625 -84.84375,84.84375 -84.875,-84.84375 z" id="rect4041-1-7-14-2" style="font-size:550px;font-style:normal;font-variant:normal;font-weight:normal;font-stretch:normal;text-align:start;line-height:125%;letter-spacing:0px;word-spacing:0px;writing-mode:lr-tb;text-anchor:start;color:#000000;fill:#2980b9;fill-opacity:1;fill-rule:nonzero;stroke:none;stroke-width:80;marker:none;visibility:visible;display:inline;overflow:visible;enable-background:accumulate;font-family:Ubuntu;-inkscape-font-specification:Ubuntu"/></g></g></g></svg>